<svg width="146" height="36" viewBox="0 0 146 36" fill="none" xmlns="http://www.w3.org/2000/svg">
<path d="M55.212 12.74C55.512 12.74 55.764 12.704 55.968 12.632C56.172 12.56 56.334 12.464 56.454 12.344C56.578 12.224 56.666 12.084 56.718 11.924C56.774 11.764 56.802 11.594 56.802 11.414C56.802 11.226 56.772 11.058 56.712 10.91C56.652 10.758 56.558 10.63 56.43 10.526C56.302 10.418 56.136 10.336 55.932 10.28C55.732 10.224 55.49 10.196 55.206 10.196H53.58V12.74H55.212ZM53.58 6.572V9.08H54.864C55.416 9.08 55.832 8.98 56.112 8.78C56.396 8.58 56.538 8.262 56.538 7.826C56.538 7.374 56.41 7.052 56.154 6.86C55.898 6.668 55.498 6.572 54.954 6.572H53.58ZM54.954 5.324C55.522 5.324 56.008 5.378 56.412 5.486C56.816 5.594 57.146 5.748 57.402 5.948C57.662 6.148 57.852 6.39 57.972 6.674C58.092 6.958 58.152 7.278 58.152 7.634C58.152 7.838 58.122 8.034 58.062 8.222C58.002 8.406 57.908 8.58 57.78 8.744C57.656 8.904 57.496 9.05 57.3 9.182C57.108 9.314 56.878 9.426 56.61 9.518C57.802 9.786 58.398 10.43 58.398 11.45C58.398 11.818 58.328 12.158 58.188 12.47C58.048 12.782 57.844 13.052 57.576 13.28C57.308 13.504 56.978 13.68 56.586 13.808C56.194 13.936 55.746 14 55.242 14H51.966V5.324H54.954ZM65.309 7.844V14H64.403C64.207 14 64.083 13.91 64.031 13.73L63.929 13.238C63.677 13.494 63.399 13.702 63.095 13.862C62.791 14.018 62.433 14.096 62.021 14.096C61.685 14.096 61.387 14.04 61.127 13.928C60.871 13.812 60.655 13.65 60.479 13.442C60.303 13.234 60.169 12.988 60.077 12.704C59.989 12.416 59.945 12.1 59.945 11.756V7.844H61.427V11.756C61.427 12.132 61.513 12.424 61.685 12.632C61.861 12.836 62.123 12.938 62.471 12.938C62.727 12.938 62.967 12.882 63.191 12.77C63.415 12.654 63.627 12.496 63.827 12.296V7.844H65.309ZM71.0144 9.044C70.9744 9.108 70.9324 9.154 70.8884 9.182C70.8444 9.206 70.7884 9.218 70.7204 9.218C70.6484 9.218 70.5704 9.198 70.4864 9.158C70.4064 9.118 70.3124 9.074 70.2044 9.026C70.0964 8.974 69.9724 8.928 69.8324 8.888C69.6964 8.848 69.5344 8.828 69.3464 8.828C69.0544 8.828 68.8244 8.89 68.6564 9.014C68.4924 9.138 68.4104 9.3 68.4104 9.5C68.4104 9.632 68.4524 9.744 68.5364 9.836C68.6244 9.924 68.7384 10.002 68.8784 10.07C69.0224 10.138 69.1844 10.2 69.3644 10.256C69.5444 10.308 69.7264 10.366 69.9104 10.43C70.0984 10.494 70.2824 10.568 70.4624 10.652C70.6424 10.732 70.8024 10.836 70.9424 10.964C71.0864 11.088 71.2004 11.238 71.2844 11.414C71.3724 11.59 71.4164 11.802 71.4164 12.05C71.4164 12.346 71.3624 12.62 71.2544 12.872C71.1504 13.12 70.9944 13.336 70.7864 13.52C70.5784 13.7 70.3204 13.842 70.0124 13.946C69.7084 14.046 69.3564 14.096 68.9564 14.096C68.7444 14.096 68.5364 14.076 68.3324 14.036C68.1324 14 67.9384 13.948 67.7504 13.88C67.5664 13.812 67.3944 13.732 67.2344 13.64C67.0784 13.548 66.9404 13.448 66.8204 13.34L67.1624 12.776C67.2064 12.708 67.2584 12.656 67.3184 12.62C67.3784 12.584 67.4544 12.566 67.5464 12.566C67.6384 12.566 67.7244 12.592 67.8044 12.644C67.8884 12.696 67.9844 12.752 68.0924 12.812C68.2004 12.872 68.3264 12.928 68.4704 12.98C68.6184 13.032 68.8044 13.058 69.0284 13.058C69.2044 13.058 69.3544 13.038 69.4784 12.998C69.6064 12.954 69.7104 12.898 69.7904 12.83C69.8744 12.762 69.9344 12.684 69.9704 12.596C70.0104 12.504 70.0304 12.41 70.0304 12.314C70.0304 12.17 69.9864 12.052 69.8984 11.96C69.8144 11.868 69.7004 11.788 69.5564 11.72C69.4164 11.652 69.2544 11.592 69.0704 11.54C68.8904 11.484 68.7044 11.424 68.5124 11.36C68.3244 11.296 68.1384 11.222 67.9544 11.138C67.7744 11.05 67.6124 10.94 67.4684 10.808C67.3284 10.676 67.2144 10.514 67.1264 10.322C67.0424 10.13 67.0004 9.898 67.0004 9.626C67.0004 9.374 67.0504 9.134 67.1504 8.906C67.2504 8.678 67.3964 8.48 67.5884 8.312C67.7844 8.14 68.0264 8.004 68.3144 7.904C68.6064 7.8 68.9424 7.748 69.3224 7.748C69.7464 7.748 70.1324 7.818 70.4804 7.958C70.8284 8.098 71.1184 8.282 71.3504 8.51L71.0144 9.044ZM74.5478 7.844V14H73.0598V7.844H74.5478ZM74.7518 6.05C74.7518 6.178 74.7258 6.298 74.6738 6.41C74.6218 6.522 74.5518 6.62 74.4638 6.704C74.3798 6.788 74.2798 6.856 74.1638 6.908C74.0478 6.956 73.9238 6.98 73.7918 6.98C73.6638 6.98 73.5418 6.956 73.4258 6.908C73.3138 6.856 73.2158 6.788 73.1318 6.704C73.0478 6.62 72.9798 6.522 72.9278 6.41C72.8798 6.298 72.8558 6.178 72.8558 6.05C72.8558 5.918 72.8798 5.794 72.9278 5.678C72.9798 5.562 73.0478 5.462 73.1318 5.378C73.2158 5.294 73.3138 5.228 73.4258 5.18C73.5418 5.128 73.6638 5.102 73.7918 5.102C73.9238 5.102 74.0478 5.128 74.1638 5.18C74.2798 5.228 74.3798 5.294 74.4638 5.378C74.5518 5.462 74.6218 5.562 74.6738 5.678C74.7258 5.794 74.7518 5.918 74.7518 6.05ZM77.9247 8.6C78.0487 8.476 78.1787 8.362 78.3147 8.258C78.4547 8.15 78.6007 8.06 78.7527 7.988C78.9087 7.912 79.0747 7.854 79.2507 7.814C79.4267 7.77 79.6187 7.748 79.8267 7.748C80.1627 7.748 80.4607 7.806 80.7207 7.922C80.9807 8.034 81.1967 8.194 81.3687 8.402C81.5447 8.606 81.6767 8.852 81.7647 9.14C81.8567 9.424 81.9027 9.738 81.9027 10.082V14H80.4207V10.082C80.4207 9.706 80.3347 9.416 80.1627 9.212C79.9907 9.004 79.7287 8.9 79.3767 8.9C79.1207 8.9 78.8807 8.958 78.6567 9.074C78.4327 9.19 78.2207 9.348 78.0207 9.548V14H76.5387V7.844H77.4447C77.6367 7.844 77.7627 7.934 77.8227 8.114L77.9247 8.6ZM87.7582 10.214C87.7582 10.022 87.7302 9.842 87.6742 9.674C87.6222 9.502 87.5422 9.352 87.4342 9.224C87.3262 9.096 87.1882 8.996 87.0202 8.924C86.8562 8.848 86.6642 8.81 86.4442 8.81C86.0162 8.81 85.6782 8.932 85.4302 9.176C85.1862 9.42 85.0302 9.766 84.9622 10.214H87.7582ZM84.9322 11.108C84.9562 11.424 85.0122 11.698 85.1002 11.93C85.1882 12.158 85.3042 12.348 85.4482 12.5C85.5922 12.648 85.7622 12.76 85.9582 12.836C86.1582 12.908 86.3782 12.944 86.6182 12.944C86.8582 12.944 87.0642 12.916 87.2362 12.86C87.4122 12.804 87.5642 12.742 87.6922 12.674C87.8242 12.606 87.9382 12.544 88.0342 12.488C88.1342 12.432 88.2302 12.404 88.3222 12.404C88.4462 12.404 88.5382 12.45 88.5982 12.542L89.0242 13.082C88.8602 13.274 88.6762 13.436 88.4722 13.568C88.2682 13.696 88.0542 13.8 87.8302 13.88C87.6102 13.956 87.3842 14.01 87.1522 14.042C86.9242 14.074 86.7022 14.09 86.4862 14.09C86.0582 14.09 85.6602 14.02 85.2922 13.88C84.9242 13.736 84.6042 13.526 84.3322 13.25C84.0602 12.97 83.8462 12.626 83.6902 12.218C83.5342 11.806 83.4562 11.33 83.4562 10.79C83.4562 10.37 83.5242 9.976 83.6602 9.608C83.7962 9.236 83.9902 8.914 84.2422 8.642C84.4982 8.366 84.8082 8.148 85.1722 7.988C85.5402 7.828 85.9542 7.748 86.4142 7.748C86.8022 7.748 87.1602 7.81 87.4882 7.934C87.8162 8.058 88.0982 8.24 88.3342 8.48C88.5702 8.716 88.7542 9.008 88.8862 9.356C89.0222 9.7 89.0902 10.094 89.0902 10.538C89.0902 10.762 89.0662 10.914 89.0182 10.994C88.9702 11.07 88.8782 11.108 88.7422 11.108H84.9322ZM94.4383 9.044C94.3983 9.108 94.3563 9.154 94.3123 9.182C94.2683 9.206 94.2123 9.218 94.1443 9.218C94.0723 9.218 93.9943 9.198 93.9103 9.158C93.8303 9.118 93.7363 9.074 93.6283 9.026C93.5203 8.974 93.3963 8.928 93.2563 8.888C93.1203 8.848 92.9583 8.828 92.7703 8.828C92.4783 8.828 92.2483 8.89 92.0803 9.014C91.9163 9.138 91.8343 9.3 91.8343 9.5C91.8343 9.632 91.8763 9.744 91.9603 9.836C92.0483 9.924 92.1623 10.002 92.3023 10.07C92.4463 10.138 92.6083 10.2 92.7883 10.256C92.9683 10.308 93.1503 10.366 93.3343 10.43C93.5223 10.494 93.7063 10.568 93.8863 10.652C94.0663 10.732 94.2263 10.836 94.3663 10.964C94.5103 11.088 94.6243 11.238 94.7083 11.414C94.7963 11.59 94.8403 11.802 94.8403 12.05C94.8403 12.346 94.7863 12.62 94.6783 12.872C94.5743 13.12 94.4183 13.336 94.2103 13.52C94.0023 13.7 93.7443 13.842 93.4363 13.946C93.1323 14.046 92.7803 14.096 92.3803 14.096C92.1683 14.096 91.9603 14.076 91.7563 14.036C91.5563 14 91.3623 13.948 91.1743 13.88C90.9903 13.812 90.8183 13.732 90.6583 13.64C90.5023 13.548 90.3643 13.448 90.2443 13.34L90.5863 12.776C90.6303 12.708 90.6823 12.656 90.7423 12.62C90.8023 12.584 90.8783 12.566 90.9703 12.566C91.0623 12.566 91.1483 12.592 91.2283 12.644C91.3123 12.696 91.4083 12.752 91.5163 12.812C91.6243 12.872 91.7503 12.928 91.8943 12.98C92.0423 13.032 92.2283 13.058 92.4523 13.058C92.6283 13.058 92.7783 13.038 92.9023 12.998C93.0303 12.954 93.1343 12.898 93.2143 12.83C93.2983 12.762 93.3583 12.684 93.3943 12.596C93.4343 12.504 93.4543 12.41 93.4543 12.314C93.4543 12.17 93.4103 12.052 93.3223 11.96C93.2383 11.868 93.1243 11.788 92.9803 11.72C92.8403 11.652 92.6783 11.592 92.4943 11.54C92.3143 11.484 92.1283 11.424 91.9363 11.36C91.7483 11.296 91.5623 11.222 91.3783 11.138C91.1983 11.05 91.0363 10.94 90.8923 10.808C90.7523 10.676 90.6383 10.514 90.5503 10.322C90.4663 10.13 90.4243 9.898 90.4243 9.626C90.4243 9.374 90.4743 9.134 90.5743 8.906C90.6743 8.678 90.8203 8.48 91.0123 8.312C91.2083 8.14 91.4503 8.004 91.7383 7.904C92.0303 7.8 92.3663 7.748 92.7463 7.748C93.1703 7.748 93.5563 7.818 93.9043 7.958C94.2523 8.098 94.5423 8.282 94.7743 8.51L94.4383 9.044ZM100.192 9.044C100.152 9.108 100.11 9.154 100.066 9.182C100.022 9.206 99.9658 9.218 99.8978 9.218C99.8258 9.218 99.7478 9.198 99.6638 9.158C99.5838 9.118 99.4898 9.074 99.3818 9.026C99.2738 8.974 99.1498 8.928 99.0098 8.888C98.8738 8.848 98.7118 8.828 98.5238 8.828C98.2318 8.828 98.0018 8.89 97.8338 9.014C97.6698 9.138 97.5878 9.3 97.5878 9.5C97.5878 9.632 97.6298 9.744 97.7138 9.836C97.8018 9.924 97.9158 10.002 98.0558 10.07C98.1998 10.138 98.3618 10.2 98.5418 10.256C98.7218 10.308 98.9038 10.366 99.0878 10.43C99.2758 10.494 99.4598 10.568 99.6398 10.652C99.8198 10.732 99.9798 10.836 100.12 10.964C100.264 11.088 100.378 11.238 100.462 11.414C100.55 11.59 100.594 11.802 100.594 12.05C100.594 12.346 100.54 12.62 100.432 12.872C100.328 13.12 100.172 13.336 99.9638 13.52C99.7558 13.7 99.4978 13.842 99.1898 13.946C98.8858 14.046 98.5338 14.096 98.1338 14.096C97.9218 14.096 97.7138 14.076 97.5098 14.036C97.3098 14 97.1158 13.948 96.9278 13.88C96.7438 13.812 96.5718 13.732 96.4118 13.64C96.2558 13.548 96.1178 13.448 95.9978 13.34L96.3398 12.776C96.3838 12.708 96.4358 12.656 96.4958 12.62C96.5558 12.584 96.6318 12.566 96.7238 12.566C96.8158 12.566 96.9018 12.592 96.9818 12.644C97.0658 12.696 97.1618 12.752 97.2698 12.812C97.3778 12.872 97.5038 12.928 97.6478 12.98C97.7958 13.032 97.9818 13.058 98.2058 13.058C98.3818 13.058 98.5318 13.038 98.6558 12.998C98.7838 12.954 98.8878 12.898 98.9678 12.83C99.0518 12.762 99.1118 12.684 99.1478 12.596C99.1878 12.504 99.2078 12.41 99.2078 12.314C99.2078 12.17 99.1638 12.052 99.0758 11.96C98.9918 11.868 98.8778 11.788 98.7338 11.72C98.5938 11.652 98.4318 11.592 98.2478 11.54C98.0678 11.484 97.8818 11.424 97.6898 11.36C97.5018 11.296 97.3158 11.222 97.1318 11.138C96.9518 11.05 96.7898 10.94 96.6458 10.808C96.5058 10.676 96.3918 10.514 96.3038 10.322C96.2198 10.13 96.1778 9.898 96.1778 9.626C96.1778 9.374 96.2278 9.134 96.3278 8.906C96.4278 8.678 96.5738 8.48 96.7658 8.312C96.9618 8.14 97.2038 8.004 97.4918 7.904C97.7838 7.8 98.1198 7.748 98.4998 7.748C98.9238 7.748 99.3098 7.818 99.6578 7.958C100.006 8.098 100.296 8.282 100.528 8.51L100.192 9.044ZM107.639 14.096C107.103 14.096 106.691 13.946 106.403 13.646C106.119 13.342 105.977 12.924 105.977 12.392V8.954H105.347C105.267 8.954 105.199 8.928 105.143 8.876C105.087 8.824 105.059 8.746 105.059 8.642V8.054L106.049 7.892L106.361 6.212C106.381 6.132 106.419 6.07 106.475 6.026C106.531 5.982 106.603 5.96 106.691 5.96H107.459V7.898H109.103V8.954H107.459V12.29C107.459 12.482 107.505 12.632 107.597 12.74C107.693 12.848 107.823 12.902 107.987 12.902C108.079 12.902 108.155 12.892 108.215 12.872C108.279 12.848 108.333 12.824 108.377 12.8C108.425 12.776 108.467 12.754 108.503 12.734C108.539 12.71 108.575 12.698 108.611 12.698C108.655 12.698 108.691 12.71 108.719 12.734C108.747 12.754 108.777 12.786 108.809 12.83L109.253 13.55C109.037 13.73 108.789 13.866 108.509 13.958C108.229 14.05 107.939 14.096 107.639 14.096ZM113.209 7.748C113.665 7.748 114.079 7.822 114.451 7.97C114.827 8.118 115.147 8.328 115.411 8.6C115.679 8.872 115.885 9.204 116.029 9.596C116.173 9.988 116.245 10.426 116.245 10.91C116.245 11.398 116.173 11.838 116.029 12.23C115.885 12.622 115.679 12.956 115.411 13.232C115.147 13.508 114.827 13.72 114.451 13.868C114.079 14.016 113.665 14.09 113.209 14.09C112.749 14.09 112.331 14.016 111.955 13.868C111.579 13.72 111.257 13.508 110.989 13.232C110.725 12.956 110.519 12.622 110.371 12.23C110.227 11.838 110.155 11.398 110.155 10.91C110.155 10.426 110.227 9.988 110.371 9.596C110.519 9.204 110.725 8.872 110.989 8.6C111.257 8.328 111.579 8.118 111.955 7.97C112.331 7.822 112.749 7.748 113.209 7.748ZM113.209 12.95C113.721 12.95 114.099 12.778 114.343 12.434C114.591 12.09 114.715 11.586 114.715 10.922C114.715 10.258 114.591 9.752 114.343 9.404C114.099 9.056 113.721 8.882 113.209 8.882C112.689 8.882 112.303 9.058 112.051 9.41C111.803 9.758 111.679 10.262 111.679 10.922C111.679 11.582 111.803 12.086 112.051 12.434C112.303 12.778 112.689 12.95 113.209 12.95Z" fill="#7367F0"/>
<path d="M59.67 27.662C59.67 28.298 59.564 28.882 59.352 29.414C59.14 29.946 58.842 30.404 58.458 30.788C58.074 31.172 57.612 31.47 57.072 31.682C56.532 31.894 55.932 32 55.272 32H51.966V23.324H55.272C55.932 23.324 56.532 23.432 57.072 23.648C57.612 23.86 58.074 24.158 58.458 24.542C58.842 24.922 59.14 25.378 59.352 25.91C59.564 26.442 59.67 27.026 59.67 27.662ZM58.014 27.662C58.014 27.186 57.95 26.76 57.822 26.384C57.698 26.004 57.516 25.684 57.276 25.424C57.04 25.16 56.752 24.958 56.412 24.818C56.076 24.678 55.696 24.608 55.272 24.608H53.586V30.716H55.272C55.696 30.716 56.076 30.646 56.412 30.506C56.752 30.366 57.04 30.166 57.276 29.906C57.516 29.642 57.698 29.322 57.822 28.946C57.95 28.566 58.014 28.138 58.014 27.662ZM63.9829 25.748C64.4389 25.748 64.8529 25.822 65.2249 25.97C65.6009 26.118 65.9209 26.328 66.1849 26.6C66.4529 26.872 66.6589 27.204 66.8029 27.596C66.9469 27.988 67.0189 28.426 67.0189 28.91C67.0189 29.398 66.9469 29.838 66.8029 30.23C66.6589 30.622 66.4529 30.956 66.1849 31.232C65.9209 31.508 65.6009 31.72 65.2249 31.868C64.8529 32.016 64.4389 32.09 63.9829 32.09C63.5229 32.09 63.1049 32.016 62.7289 31.868C62.3529 31.72 62.0309 31.508 61.7629 31.232C61.4989 30.956 61.2929 30.622 61.1449 30.23C61.0009 29.838 60.9289 29.398 60.9289 28.91C60.9289 28.426 61.0009 27.988 61.1449 27.596C61.2929 27.204 61.4989 26.872 61.7629 26.6C62.0309 26.328 62.3529 26.118 62.7289 25.97C63.1049 25.822 63.5229 25.748 63.9829 25.748ZM63.9829 30.95C64.4949 30.95 64.8729 30.778 65.1169 30.434C65.3649 30.09 65.4889 29.586 65.4889 28.922C65.4889 28.258 65.3649 27.752 65.1169 27.404C64.8729 27.056 64.4949 26.882 63.9829 26.882C63.4629 26.882 63.0769 27.058 62.8249 27.41C62.5769 27.758 62.4529 28.262 62.4529 28.922C62.4529 29.582 62.5769 30.086 62.8249 30.434C63.0769 30.778 63.4629 30.95 63.9829 30.95ZM71.3535 25.748C71.8095 25.748 72.2235 25.822 72.5955 25.97C72.9715 26.118 73.2915 26.328 73.5555 26.6C73.8235 26.872 74.0295 27.204 74.1735 27.596C74.3175 27.988 74.3895 28.426 74.3895 28.91C74.3895 29.398 74.3175 29.838 74.1735 30.23C74.0295 30.622 73.8235 30.956 73.5555 31.232C73.2915 31.508 72.9715 31.72 72.5955 31.868C72.2235 32.016 71.8095 32.09 71.3535 32.09C70.8935 32.09 70.4755 32.016 70.0995 31.868C69.7235 31.72 69.4015 31.508 69.1335 31.232C68.8695 30.956 68.6635 30.622 68.5155 30.23C68.3715 29.838 68.2995 29.398 68.2995 28.91C68.2995 28.426 68.3715 27.988 68.5155 27.596C68.6635 27.204 68.8695 26.872 69.1335 26.6C69.4015 26.328 69.7235 26.118 70.0995 25.97C70.4755 25.822 70.8935 25.748 71.3535 25.748ZM71.3535 30.95C71.8655 30.95 72.2435 30.778 72.4875 30.434C72.7355 30.09 72.8595 29.586 72.8595 28.922C72.8595 28.258 72.7355 27.752 72.4875 27.404C72.2435 27.056 71.8655 26.882 71.3535 26.882C70.8335 26.882 70.4475 27.058 70.1955 27.41C69.9475 27.758 69.8235 28.262 69.8235 28.922C69.8235 29.582 69.9475 30.086 70.1955 30.434C70.4475 30.778 70.8335 30.95 71.3535 30.95ZM77.3981 26.912C77.5901 26.544 77.8181 26.256 78.0821 26.048C78.3461 25.836 78.6581 25.73 79.0181 25.73C79.3021 25.73 79.5301 25.792 79.7021 25.916L79.6061 27.026C79.5861 27.098 79.5561 27.15 79.5161 27.182C79.4801 27.21 79.4301 27.224 79.3661 27.224C79.3061 27.224 79.2161 27.214 79.0961 27.194C78.9801 27.174 78.8661 27.164 78.7541 27.164C78.5901 27.164 78.4441 27.188 78.3161 27.236C78.1881 27.284 78.0721 27.354 77.9681 27.446C77.8681 27.534 77.7781 27.642 77.6981 27.77C77.6221 27.898 77.5501 28.044 77.4821 28.208V32H76.0001V25.844H76.8701C77.0221 25.844 77.1281 25.872 77.1881 25.928C77.2481 25.98 77.2881 26.076 77.3081 26.216L77.3981 26.912ZM93.7388 23.324V32H92.3168V26.396C92.3168 26.172 92.3288 25.93 92.3528 25.67L89.7308 30.596C89.6068 30.832 89.4168 30.95 89.1608 30.95H88.9328C88.6768 30.95 88.4868 30.832 88.3628 30.596L85.7108 25.652C85.7228 25.784 85.7328 25.914 85.7408 26.042C85.7488 26.17 85.7528 26.288 85.7528 26.396V32H84.3308V23.324H85.5488C85.6208 23.324 85.6828 23.326 85.7348 23.33C85.7868 23.334 85.8328 23.344 85.8728 23.36C85.9168 23.376 85.9548 23.402 85.9868 23.438C86.0228 23.474 86.0568 23.522 86.0888 23.582L88.6868 28.4C88.7548 28.528 88.8168 28.66 88.8728 28.796C88.9328 28.932 88.9908 29.072 89.0468 29.216C89.1028 29.068 89.1608 28.926 89.2208 28.79C89.2808 28.65 89.3448 28.516 89.4128 28.388L91.9748 23.582C92.0068 23.522 92.0408 23.474 92.0768 23.438C92.1128 23.402 92.1508 23.376 92.1908 23.36C92.2348 23.344 92.2828 23.334 92.3348 23.33C92.3868 23.326 92.4488 23.324 92.5208 23.324H93.7388ZM99.0203 29.372C98.5923 29.392 98.2323 29.43 97.9403 29.486C97.6483 29.538 97.4143 29.606 97.2383 29.69C97.0623 29.774 96.9363 29.872 96.8603 29.984C96.7843 30.096 96.7463 30.218 96.7463 30.35C96.7463 30.61 96.8223 30.796 96.9743 30.908C97.1303 31.02 97.3323 31.076 97.5803 31.076C97.8843 31.076 98.1463 31.022 98.3663 30.914C98.5903 30.802 98.8083 30.634 99.0203 30.41V29.372ZM95.6243 26.702C96.3323 26.054 97.1843 25.73 98.1803 25.73C98.5403 25.73 98.8623 25.79 99.1463 25.91C99.4303 26.026 99.6703 26.19 99.8663 26.402C100.062 26.61 100.21 26.86 100.31 27.152C100.414 27.444 100.466 27.764 100.466 28.112V32H99.7943C99.6543 32 99.5463 31.98 99.4703 31.94C99.3943 31.896 99.3343 31.81 99.2903 31.682L99.1583 31.238C99.0023 31.378 98.8503 31.502 98.7023 31.61C98.5543 31.714 98.4003 31.802 98.2403 31.874C98.0803 31.946 97.9083 32 97.7243 32.036C97.5443 32.076 97.3443 32.096 97.1243 32.096C96.8643 32.096 96.6243 32.062 96.4043 31.994C96.1843 31.922 95.9943 31.816 95.8343 31.676C95.6743 31.536 95.5503 31.362 95.4623 31.154C95.3743 30.946 95.3303 30.704 95.3303 30.428C95.3303 30.272 95.3563 30.118 95.4083 29.966C95.4603 29.81 95.5443 29.662 95.6603 29.522C95.7803 29.382 95.9343 29.25 96.1223 29.126C96.3103 29.002 96.5403 28.894 96.8123 28.802C97.0883 28.71 97.4083 28.636 97.7723 28.58C98.1363 28.52 98.5523 28.484 99.0203 28.472V28.112C99.0203 27.7 98.9323 27.396 98.7563 27.2C98.5803 27 98.3263 26.9 97.9943 26.9C97.7543 26.9 97.5543 26.928 97.3943 26.984C97.2383 27.04 97.1003 27.104 96.9803 27.176C96.8603 27.244 96.7503 27.306 96.6503 27.362C96.5543 27.418 96.4463 27.446 96.3263 27.446C96.2223 27.446 96.1343 27.42 96.0623 27.368C95.9903 27.312 95.9323 27.248 95.8883 27.176L95.6243 26.702ZM103.74 26.912C103.932 26.544 104.16 26.256 104.424 26.048C104.688 25.836 105 25.73 105.36 25.73C105.644 25.73 105.872 25.792 106.044 25.916L105.948 27.026C105.928 27.098 105.898 27.15 105.858 27.182C105.822 27.21 105.772 27.224 105.708 27.224C105.648 27.224 105.558 27.214 105.438 27.194C105.322 27.174 105.208 27.164 105.096 27.164C104.932 27.164 104.786 27.188 104.658 27.236C104.53 27.284 104.414 27.354 104.31 27.446C104.21 27.534 104.12 27.642 104.04 27.77C103.964 27.898 103.892 28.044 103.824 28.208V32H102.342V25.844H103.212C103.364 25.844 103.47 25.872 103.53 25.928C103.59 25.98 103.63 26.076 103.65 26.216L103.74 26.912ZM108.781 23.084V28.19H109.057C109.157 28.19 109.235 28.178 109.291 28.154C109.351 28.126 109.411 28.072 109.471 27.992L111.001 26.102C111.065 26.018 111.135 25.954 111.211 25.91C111.291 25.866 111.393 25.844 111.517 25.844H112.873L110.959 28.13C110.823 28.31 110.675 28.448 110.515 28.544C110.599 28.604 110.673 28.674 110.737 28.754C110.805 28.834 110.869 28.92 110.929 29.012L112.981 32H111.643C111.527 32 111.427 31.982 111.343 31.946C111.259 31.906 111.189 31.836 111.133 31.736L109.561 29.402C109.505 29.31 109.447 29.25 109.387 29.222C109.327 29.194 109.237 29.18 109.117 29.18H108.781V32H107.299V23.084H108.781ZM117.838 28.214C117.838 28.022 117.81 27.842 117.754 27.674C117.702 27.502 117.622 27.352 117.514 27.224C117.406 27.096 117.268 26.996 117.1 26.924C116.936 26.848 116.744 26.81 116.524 26.81C116.096 26.81 115.758 26.932 115.51 27.176C115.266 27.42 115.11 27.766 115.042 28.214H117.838ZM115.012 29.108C115.036 29.424 115.092 29.698 115.18 29.93C115.268 30.158 115.384 30.348 115.528 30.5C115.672 30.648 115.842 30.76 116.038 30.836C116.238 30.908 116.458 30.944 116.698 30.944C116.938 30.944 117.144 30.916 117.316 30.86C117.492 30.804 117.644 30.742 117.772 30.674C117.904 30.606 118.018 30.544 118.114 30.488C118.214 30.432 118.31 30.404 118.402 30.404C118.526 30.404 118.618 30.45 118.678 30.542L119.104 31.082C118.94 31.274 118.756 31.436 118.552 31.568C118.348 31.696 118.134 31.8 117.91 31.88C117.69 31.956 117.464 32.01 117.232 32.042C117.004 32.074 116.782 32.09 116.566 32.09C116.138 32.09 115.74 32.02 115.372 31.88C115.004 31.736 114.684 31.526 114.412 31.25C114.14 30.97 113.926 30.626 113.77 30.218C113.614 29.806 113.536 29.33 113.536 28.79C113.536 28.37 113.604 27.976 113.74 27.608C113.876 27.236 114.07 26.914 114.322 26.642C114.578 26.366 114.888 26.148 115.252 25.988C115.62 25.828 116.034 25.748 116.494 25.748C116.882 25.748 117.24 25.81 117.568 25.934C117.896 26.058 118.178 26.24 118.414 26.48C118.65 26.716 118.834 27.008 118.966 27.356C119.102 27.7 119.17 28.094 119.17 28.538C119.17 28.762 119.146 28.914 119.098 28.994C119.05 29.07 118.958 29.108 118.822 29.108H115.012ZM126.914 32H125.432V26.954H122.576V30.29C122.576 30.482 122.622 30.632 122.714 30.74C122.81 30.848 122.94 30.902 123.104 30.902C123.196 30.902 123.272 30.892 123.332 30.872C123.396 30.848 123.45 30.824 123.494 30.8C123.542 30.776 123.584 30.754 123.62 30.734C123.656 30.71 123.692 30.698 123.728 30.698C123.772 30.698 123.808 30.71 123.836 30.734C123.864 30.754 123.894 30.786 123.926 30.83L124.37 31.55C124.154 31.73 123.906 31.866 123.626 31.958C123.346 32.05 123.056 32.096 122.756 32.096C122.22 32.096 121.808 31.946 121.52 31.646C121.236 31.342 121.094 30.924 121.094 30.392V26.954H120.464C120.384 26.954 120.316 26.928 120.26 26.876C120.204 26.824 120.176 26.746 120.176 26.642V26.054L121.166 25.886L121.478 24.212C121.498 24.132 121.536 24.07 121.592 24.026C121.648 23.982 121.72 23.96 121.808 23.96H122.576V25.898H126.914V32ZM127.172 24.026C127.172 24.154 127.146 24.276 127.094 24.392C127.042 24.504 126.972 24.602 126.884 24.686C126.8 24.77 126.698 24.838 126.578 24.89C126.462 24.938 126.338 24.962 126.206 24.962C126.078 24.962 125.958 24.938 125.846 24.89C125.734 24.838 125.636 24.77 125.552 24.686C125.468 24.602 125.4 24.504 125.348 24.392C125.3 24.276 125.276 24.154 125.276 24.026C125.276 23.894 125.3 23.772 125.348 23.66C125.4 23.544 125.468 23.444 125.552 23.36C125.636 23.272 125.734 23.204 125.846 23.156C125.958 23.104 126.078 23.078 126.206 23.078C126.338 23.078 126.462 23.104 126.578 23.156C126.698 23.204 126.8 23.272 126.884 23.36C126.972 23.444 127.042 23.544 127.094 23.66C127.146 23.772 127.172 23.894 127.172 24.026ZM130.293 26.6C130.417 26.476 130.547 26.362 130.683 26.258C130.823 26.15 130.969 26.06 131.121 25.988C131.277 25.912 131.443 25.854 131.619 25.814C131.795 25.77 131.987 25.748 132.195 25.748C132.531 25.748 132.829 25.806 133.089 25.922C133.349 26.034 133.565 26.194 133.737 26.402C133.913 26.606 134.045 26.852 134.133 27.14C134.225 27.424 134.271 27.738 134.271 28.082V32H132.789V28.082C132.789 27.706 132.703 27.416 132.531 27.212C132.359 27.004 132.097 26.9 131.745 26.9C131.489 26.9 131.249 26.958 131.025 27.074C130.801 27.19 130.589 27.348 130.389 27.548V32H128.907V25.844H129.813C130.005 25.844 130.131 25.934 130.191 26.114L130.293 26.6ZM138.41 28.772C138.594 28.772 138.754 28.748 138.89 28.7C139.026 28.648 139.138 28.578 139.226 28.49C139.318 28.402 139.386 28.296 139.43 28.172C139.478 28.048 139.502 27.912 139.502 27.764C139.502 27.46 139.41 27.22 139.226 27.044C139.046 26.864 138.774 26.774 138.41 26.774C138.046 26.774 137.772 26.864 137.588 27.044C137.408 27.22 137.318 27.46 137.318 27.764C137.318 27.908 137.34 28.042 137.384 28.166C137.432 28.29 137.5 28.398 137.588 28.49C137.68 28.578 137.794 28.648 137.93 28.7C138.07 28.748 138.23 28.772 138.41 28.772ZM140.084 32.276C140.084 32.156 140.048 32.058 139.976 31.982C139.904 31.906 139.806 31.848 139.682 31.808C139.558 31.764 139.412 31.732 139.244 31.712C139.08 31.692 138.904 31.678 138.716 31.67C138.532 31.658 138.34 31.648 138.14 31.64C137.944 31.632 137.752 31.616 137.564 31.592C137.4 31.684 137.266 31.792 137.162 31.916C137.062 32.04 137.012 32.184 137.012 32.348C137.012 32.456 137.038 32.556 137.09 32.648C137.146 32.744 137.232 32.826 137.348 32.894C137.468 32.962 137.622 33.014 137.81 33.05C137.998 33.09 138.228 33.11 138.5 33.11C138.776 33.11 139.014 33.088 139.214 33.044C139.414 33.004 139.578 32.946 139.706 32.87C139.838 32.798 139.934 32.71 139.994 32.606C140.054 32.506 140.084 32.396 140.084 32.276ZM141.56 26.054V26.606C141.56 26.782 141.454 26.89 141.242 26.93L140.69 27.032C140.774 27.244 140.816 27.476 140.816 27.728C140.816 28.032 140.754 28.308 140.63 28.556C140.51 28.8 140.342 29.008 140.126 29.18C139.91 29.352 139.654 29.486 139.358 29.582C139.066 29.674 138.75 29.72 138.41 29.72C138.29 29.72 138.174 29.714 138.062 29.702C137.95 29.69 137.84 29.674 137.732 29.654C137.54 29.77 137.444 29.9 137.444 30.044C137.444 30.168 137.5 30.26 137.612 30.32C137.728 30.376 137.88 30.416 138.068 30.44C138.256 30.464 138.47 30.48 138.71 30.488C138.95 30.492 139.196 30.504 139.448 30.524C139.7 30.544 139.946 30.58 140.186 30.632C140.426 30.68 140.64 30.758 140.828 30.866C141.016 30.974 141.166 31.122 141.278 31.31C141.394 31.494 141.452 31.732 141.452 32.024C141.452 32.296 141.384 32.56 141.248 32.816C141.116 33.072 140.922 33.3 140.666 33.5C140.414 33.7 140.102 33.86 139.73 33.98C139.362 34.104 138.942 34.166 138.47 34.166C138.006 34.166 137.602 34.12 137.258 34.028C136.914 33.94 136.628 33.82 136.4 33.668C136.172 33.52 136.002 33.348 135.89 33.152C135.778 32.956 135.722 32.752 135.722 32.54C135.722 32.252 135.808 32.012 135.98 31.82C136.156 31.624 136.396 31.468 136.7 31.352C136.536 31.268 136.406 31.156 136.31 31.016C136.214 30.876 136.166 30.692 136.166 30.464C136.166 30.372 136.182 30.278 136.214 30.182C136.25 30.082 136.3 29.984 136.364 29.888C136.432 29.792 136.516 29.702 136.616 29.618C136.716 29.53 136.834 29.452 136.97 29.384C136.658 29.216 136.412 28.992 136.232 28.712C136.056 28.432 135.968 28.104 135.968 27.728C135.968 27.424 136.028 27.15 136.148 26.906C136.272 26.658 136.442 26.448 136.658 26.276C136.878 26.1 137.136 25.966 137.432 25.874C137.732 25.782 138.058 25.736 138.41 25.736C138.674 25.736 138.922 25.764 139.154 25.82C139.386 25.872 139.598 25.95 139.79 26.054H141.56ZM142.764 31.184C142.764 31.06 142.786 30.942 142.83 30.83C142.878 30.718 142.942 30.622 143.022 30.542C143.102 30.462 143.198 30.398 143.31 30.35C143.422 30.302 143.542 30.278 143.67 30.278C143.798 30.278 143.916 30.302 144.024 30.35C144.136 30.398 144.232 30.462 144.312 30.542C144.396 30.622 144.462 30.718 144.51 30.83C144.558 30.942 144.582 31.06 144.582 31.184C144.582 31.312 144.558 31.432 144.51 31.544C144.462 31.652 144.396 31.746 144.312 31.826C144.232 31.906 144.136 31.968 144.024 32.012C143.916 32.06 143.798 32.084 143.67 32.084C143.542 32.084 143.422 32.06 143.31 32.012C143.198 31.968 143.102 31.906 143.022 31.826C142.942 31.746 142.878 31.652 142.83 31.544C142.786 31.432 142.764 31.312 142.764 31.184Z" fill="#6E6B7B"/>
<line x1="43" y1="3" x2="43" y2="33" stroke="url(#paint0_linear_791_361)"/>
<path d="M0 6V25.4137L11.2165 29.4931V10.0759L0 6ZM9.62815 24.3956C9.54768 24.6161 9.34126 24.7525 9.12085 24.7525C9.06138 24.7525 8.9949 24.742 8.93543 24.721L2.44902 22.363C2.16913 22.2615 2.02569 21.9501 2.12715 21.6702C2.22861 21.3903 2.53998 21.2469 2.81987 21.3484L9.30628 23.7064C9.58617 23.8079 9.72961 24.1158 9.62815 24.3956ZM9.62815 21.0685C9.54768 21.2889 9.34126 21.4253 9.12085 21.4253C9.06138 21.4253 8.9949 21.4148 8.93543 21.3938L2.44902 19.0358C2.16913 18.9343 2.02569 18.623 2.12715 18.3431C2.22861 18.0632 2.53998 17.9162 2.81987 18.0212L9.30628 20.3792C9.58617 20.4772 9.72961 20.7886 9.62815 21.0685ZM9.65964 17.5559C9.65964 17.5734 9.65964 17.5909 9.65614 17.6084C9.65264 17.6293 9.64914 17.6503 9.64564 17.6748C9.64214 17.6853 9.63865 17.6993 9.63515 17.7098C9.60716 17.8008 9.55468 17.8812 9.48821 17.9477C9.47071 17.9652 9.44622 17.9827 9.42523 18.0002C9.41474 18.0072 9.40424 18.0142 9.39025 18.0212C9.36576 18.0352 9.34476 18.0457 9.32027 18.0562C9.2608 18.0807 9.19082 18.0947 9.12085 18.0947C9.10336 18.0947 9.08587 18.0947 9.06488 18.0912C9.04388 18.0877 9.02289 18.0842 8.9984 18.0807C8.98791 18.0772 8.97391 18.0737 8.96342 18.0702C8.94592 18.0632 8.92843 18.0597 8.91094 18.0527L2.47351 15.7121L2.44902 15.7051C2.44202 15.7016 2.43153 15.6981 2.42453 15.6946C2.41403 15.6911 2.40354 15.6841 2.39304 15.6806C2.38605 15.6771 2.37905 15.6736 2.37205 15.6701C2.34756 15.6561 2.32307 15.6421 2.30208 15.6246C2.29158 15.6177 2.28109 15.6072 2.27059 15.5967C2.2391 15.5687 2.21112 15.5372 2.19012 15.5022C2.18313 15.4917 2.17263 15.4812 2.16913 15.4672C2.16214 15.4567 2.15514 15.4427 2.15164 15.4322C2.11665 15.3623 2.09566 15.2818 2.09566 15.1943V9.54408C2.09566 9.52659 2.09566 9.5091 2.09916 9.4916C2.10266 9.47061 2.10616 9.44962 2.10966 9.43213C2.11315 9.41813 2.11665 9.40414 2.12015 9.39014C2.12715 9.37265 2.13065 9.35166 2.14114 9.33417C2.14814 9.32017 2.15514 9.30618 2.16214 9.28868C2.16913 9.27819 2.17613 9.26419 2.18313 9.2537C2.20062 9.22571 2.22161 9.20122 2.2426 9.17673C2.2496 9.16623 2.2601 9.15924 2.26709 9.15224C2.28459 9.13475 2.30908 9.11725 2.33007 9.09976C2.34057 9.09276 2.35106 9.08577 2.36506 9.07877C2.37205 9.07177 2.38255 9.06827 2.39304 9.06477C2.40354 9.05778 2.41753 9.05428 2.42803 9.04728C2.44552 9.04028 2.45952 9.03329 2.47701 9.02979C2.52949 9.0123 2.58197 9.0053 2.63795 9.0053C2.65544 9.0053 2.67643 9.0053 2.69392 9.0088C2.71492 9.0123 2.73591 9.01579 2.7604 9.01929C2.77089 9.02279 2.78489 9.02629 2.79538 9.02979C2.79888 9.02979 2.80238 9.02979 2.80238 9.03329C2.80938 9.03329 2.81637 9.03679 2.82337 9.04028L9.28529 11.3913C9.30978 11.3983 9.33427 11.4088 9.35876 11.4193C9.36925 11.4228 9.37625 11.4298 9.38675 11.4333C9.41124 11.4473 9.43573 11.4613 9.45672 11.4788C9.46721 11.4858 9.47771 11.4963 9.48821 11.5068C9.4987 11.5173 9.5092 11.5243 9.5162 11.5348C9.53369 11.5523 9.55118 11.5768 9.56867 11.5978C9.59316 11.6327 9.61066 11.6677 9.62815 11.7062C9.65264 11.7692 9.66663 11.8357 9.66663 11.9056V17.5559H9.65964Z" fill="url(#paint1_linear_791_361)"/>
<path d="M24 25.4137L35.2165 29.4931V10.0759L24 6V25.4137ZM25.9942 11.4473C26.0957 11.1674 26.407 11.024 26.6869 11.1254L33.1733 13.4835C33.4532 13.585 33.5967 13.8963 33.4952 14.1762C33.4147 14.3966 33.2083 14.5331 32.9879 14.5331C32.9284 14.5331 32.862 14.5226 32.8025 14.5016L26.3161 12.14C26.0362 12.0386 25.8927 11.7307 25.9942 11.4473ZM25.9942 14.778C26.0957 14.4981 26.407 14.3547 26.6869 14.4561L33.1733 16.8142C33.4532 16.9156 33.5967 17.227 33.4952 17.5069C33.4147 17.7273 33.2083 17.8638 32.9879 17.8638C32.9284 17.8638 32.862 17.8533 32.8025 17.8323L26.3161 15.4707C26.0362 15.3693 25.8927 15.0579 25.9942 14.778ZM25.7213 18.0702C25.8228 17.7903 26.1341 17.6433 26.414 17.7483L32.9004 20.1064C33.1803 20.2078 33.3238 20.5192 33.2223 20.7991C33.1418 21.0195 32.9354 21.1559 32.715 21.1559C32.6555 21.1559 32.5891 21.1454 32.5296 21.1245L26.0467 18.7629C25.7668 18.6579 25.6199 18.3501 25.7213 18.0702ZM25.7213 21.3973C25.8228 21.1175 26.1341 20.9705 26.414 21.0755L32.9004 23.4335C33.1803 23.535 33.3238 23.8464 33.2223 24.1262C33.1418 24.3467 32.9354 24.4831 32.715 24.4831C32.6555 24.4831 32.5891 24.4726 32.5296 24.4516L26.0467 22.0901C25.7668 21.9886 25.6199 21.6807 25.7213 21.3973Z" fill="url(#paint2_linear_791_361)"/>
<path d="M11.8918 29.4896L23.1083 25.4102V6L11.8918 10.0759V29.4896ZM21.0616 21.6877L14.5752 24.0458C14.5157 24.0668 14.4492 24.0773 14.3898 24.0773C14.1693 24.0773 13.9629 23.9408 13.8825 23.7204C13.781 23.4405 13.9244 23.1291 14.2043 23.0277L20.6907 20.6696C20.9706 20.5682 21.282 20.7116 21.3835 20.9915C21.4884 21.2749 21.3415 21.5828 21.0616 21.6877ZM21.387 17.6643C21.4884 17.9442 21.345 18.2556 21.0651 18.3571L14.5787 20.7151C14.5192 20.7361 14.4527 20.7466 14.3933 20.7466C14.1728 20.7466 13.9664 20.6102 13.886 20.3897C13.7845 20.1099 13.9279 19.7985 14.2078 19.697L20.6942 17.339C20.9741 17.2375 21.282 17.3844 21.387 17.6643ZM13.9384 13.0777L20.4248 10.7196C20.7047 10.6182 21.0161 10.7616 21.1176 11.0415C21.219 11.3214 21.0756 11.6327 20.7957 11.7342L14.3093 14.0923C14.2498 14.1133 14.1833 14.1238 14.1239 14.1238C13.9034 14.1238 13.697 13.9873 13.6166 13.7669C13.5116 13.4905 13.6585 13.1826 13.9384 13.0777ZM13.9384 16.4083L20.4248 14.0503C20.7047 13.9488 21.0161 14.0923 21.1176 14.3722C21.219 14.652 21.0756 14.9634 20.7957 15.0649L14.3093 17.4229C14.2498 17.4439 14.1833 17.4544 14.1239 17.4544C13.9034 17.4544 13.697 17.318 13.6166 17.0976C13.5116 16.8177 13.6585 16.5098 13.9384 16.4083Z" fill="url(#paint3_linear_791_361)"/>
<defs>
<linearGradient id="paint0_linear_791_361" x1="42.9961" y1="2.96154" x2="42.9961" y2="32.9615" gradientUnits="userSpaceOnUse">
<stop stop-color="#7367F0"/>
<stop offset="1" stop-color="#6E6B7B"/>
</linearGradient>
<linearGradient id="paint1_linear_791_361" x1="11.7846" y1="18.5" x2="-0.812554" y2="18.3476" gradientUnits="userSpaceOnUse">
<stop stop-color="#7367F0"/>
<stop offset="0.265625" stop-color="#7168C6"/>
<stop offset="0.734375" stop-color="#6E6B7B"/>
<stop offset="1" stop-color="#6E6B7B"/>
</linearGradient>
<linearGradient id="paint2_linear_791_361" x1="35.7846" y1="18.5" x2="23.1874" y2="18.3476" gradientUnits="userSpaceOnUse">
<stop stop-color="#7367F0"/>
<stop offset="0.265625" stop-color="#7168C6"/>
<stop offset="0.734375" stop-color="#6E6B7B"/>
<stop offset="1" stop-color="#6E6B7B"/>
</linearGradient>
<linearGradient id="paint3_linear_791_361" x1="23.6763" y1="18.4981" x2="11.0792" y2="18.3458" gradientUnits="userSpaceOnUse">
<stop stop-color="#7367F0"/>
<stop offset="0.265625" stop-color="#7168C6"/>
<stop offset="0.734375" stop-color="#6E6B7B"/>
<stop offset="1" stop-color="#6E6B7B"/>
</linearGradient>
</defs>
</svg>
