<svg width="144" height="36" viewBox="0 0 144 36" fill="none" xmlns="http://www.w3.org/2000/svg">
<path d="M53.212 12.74C53.512 12.74 53.764 12.704 53.968 12.632C54.172 12.56 54.334 12.464 54.454 12.344C54.578 12.224 54.666 12.084 54.718 11.924C54.774 11.764 54.802 11.594 54.802 11.414C54.802 11.226 54.772 11.058 54.712 10.91C54.652 10.758 54.558 10.63 54.43 10.526C54.302 10.418 54.136 10.336 53.932 10.28C53.732 10.224 53.49 10.196 53.206 10.196H51.58V12.74H53.212ZM51.58 6.572V9.08H52.864C53.416 9.08 53.832 8.98 54.112 8.78C54.396 8.58 54.538 8.262 54.538 7.826C54.538 7.374 54.41 7.052 54.154 6.86C53.898 6.668 53.498 6.572 52.954 6.572H51.58ZM52.954 5.324C53.522 5.324 54.008 5.378 54.412 5.486C54.816 5.594 55.146 5.748 55.402 5.948C55.662 6.148 55.852 6.39 55.972 6.674C56.092 6.958 56.152 7.278 56.152 7.634C56.152 7.838 56.122 8.034 56.062 8.222C56.002 8.406 55.908 8.58 55.78 8.744C55.656 8.904 55.496 9.05 55.3 9.182C55.108 9.314 54.878 9.426 54.61 9.518C55.802 9.786 56.398 10.43 56.398 11.45C56.398 11.818 56.328 12.158 56.188 12.47C56.048 12.782 55.844 13.052 55.576 13.28C55.308 13.504 54.978 13.68 54.586 13.808C54.194 13.936 53.746 14 53.242 14H49.966V5.324H52.954ZM63.309 7.844V14H62.403C62.207 14 62.083 13.91 62.031 13.73L61.929 13.238C61.677 13.494 61.399 13.702 61.095 13.862C60.791 14.018 60.433 14.096 60.021 14.096C59.685 14.096 59.387 14.04 59.127 13.928C58.871 13.812 58.655 13.65 58.479 13.442C58.303 13.234 58.169 12.988 58.077 12.704C57.989 12.416 57.945 12.1 57.945 11.756V7.844H59.427V11.756C59.427 12.132 59.513 12.424 59.685 12.632C59.861 12.836 60.123 12.938 60.471 12.938C60.727 12.938 60.967 12.882 61.191 12.77C61.415 12.654 61.627 12.496 61.827 12.296V7.844H63.309ZM69.0144 9.044C68.9744 9.108 68.9324 9.154 68.8884 9.182C68.8444 9.206 68.7884 9.218 68.7204 9.218C68.6484 9.218 68.5704 9.198 68.4864 9.158C68.4064 9.118 68.3124 9.074 68.2044 9.026C68.0964 8.974 67.9724 8.928 67.8324 8.888C67.6964 8.848 67.5344 8.828 67.3464 8.828C67.0544 8.828 66.8244 8.89 66.6564 9.014C66.4924 9.138 66.4104 9.3 66.4104 9.5C66.4104 9.632 66.4524 9.744 66.5364 9.836C66.6244 9.924 66.7384 10.002 66.8784 10.07C67.0224 10.138 67.1844 10.2 67.3644 10.256C67.5444 10.308 67.7264 10.366 67.9104 10.43C68.0984 10.494 68.2824 10.568 68.4624 10.652C68.6424 10.732 68.8024 10.836 68.9424 10.964C69.0864 11.088 69.2004 11.238 69.2844 11.414C69.3724 11.59 69.4164 11.802 69.4164 12.05C69.4164 12.346 69.3624 12.62 69.2544 12.872C69.1504 13.12 68.9944 13.336 68.7864 13.52C68.5784 13.7 68.3204 13.842 68.0124 13.946C67.7084 14.046 67.3564 14.096 66.9564 14.096C66.7444 14.096 66.5364 14.076 66.3324 14.036C66.1324 14 65.9384 13.948 65.7504 13.88C65.5664 13.812 65.3944 13.732 65.2344 13.64C65.0784 13.548 64.9404 13.448 64.8204 13.34L65.1624 12.776C65.2064 12.708 65.2584 12.656 65.3184 12.62C65.3784 12.584 65.4544 12.566 65.5464 12.566C65.6384 12.566 65.7244 12.592 65.8044 12.644C65.8884 12.696 65.9844 12.752 66.0924 12.812C66.2004 12.872 66.3264 12.928 66.4704 12.98C66.6184 13.032 66.8044 13.058 67.0284 13.058C67.2044 13.058 67.3544 13.038 67.4784 12.998C67.6064 12.954 67.7104 12.898 67.7904 12.83C67.8744 12.762 67.9344 12.684 67.9704 12.596C68.0104 12.504 68.0304 12.41 68.0304 12.314C68.0304 12.17 67.9864 12.052 67.8984 11.96C67.8144 11.868 67.7004 11.788 67.5564 11.72C67.4164 11.652 67.2544 11.592 67.0704 11.54C66.8904 11.484 66.7044 11.424 66.5124 11.36C66.3244 11.296 66.1384 11.222 65.9544 11.138C65.7744 11.05 65.6124 10.94 65.4684 10.808C65.3284 10.676 65.2144 10.514 65.1264 10.322C65.0424 10.13 65.0004 9.898 65.0004 9.626C65.0004 9.374 65.0504 9.134 65.1504 8.906C65.2504 8.678 65.3964 8.48 65.5884 8.312C65.7844 8.14 66.0264 8.004 66.3144 7.904C66.6064 7.8 66.9424 7.748 67.3224 7.748C67.7464 7.748 68.1324 7.818 68.4804 7.958C68.8284 8.098 69.1184 8.282 69.3504 8.51L69.0144 9.044ZM72.5478 7.844V14H71.0598V7.844H72.5478ZM72.7518 6.05C72.7518 6.178 72.7258 6.298 72.6738 6.41C72.6218 6.522 72.5518 6.62 72.4638 6.704C72.3798 6.788 72.2798 6.856 72.1638 6.908C72.0478 6.956 71.9238 6.98 71.7918 6.98C71.6638 6.98 71.5418 6.956 71.4258 6.908C71.3138 6.856 71.2158 6.788 71.1318 6.704C71.0478 6.62 70.9798 6.522 70.9278 6.41C70.8798 6.298 70.8558 6.178 70.8558 6.05C70.8558 5.918 70.8798 5.794 70.9278 5.678C70.9798 5.562 71.0478 5.462 71.1318 5.378C71.2158 5.294 71.3138 5.228 71.4258 5.18C71.5418 5.128 71.6638 5.102 71.7918 5.102C71.9238 5.102 72.0478 5.128 72.1638 5.18C72.2798 5.228 72.3798 5.294 72.4638 5.378C72.5518 5.462 72.6218 5.562 72.6738 5.678C72.7258 5.794 72.7518 5.918 72.7518 6.05ZM75.9247 8.6C76.0487 8.476 76.1787 8.362 76.3147 8.258C76.4547 8.15 76.6007 8.06 76.7527 7.988C76.9087 7.912 77.0747 7.854 77.2507 7.814C77.4267 7.77 77.6187 7.748 77.8267 7.748C78.1627 7.748 78.4607 7.806 78.7207 7.922C78.9807 8.034 79.1967 8.194 79.3687 8.402C79.5447 8.606 79.6767 8.852 79.7647 9.14C79.8567 9.424 79.9027 9.738 79.9027 10.082V14H78.4207V10.082C78.4207 9.706 78.3347 9.416 78.1627 9.212C77.9907 9.004 77.7287 8.9 77.3767 8.9C77.1207 8.9 76.8807 8.958 76.6567 9.074C76.4327 9.19 76.2207 9.348 76.0207 9.548V14H74.5387V7.844H75.4447C75.6367 7.844 75.7627 7.934 75.8227 8.114L75.9247 8.6ZM85.7582 10.214C85.7582 10.022 85.7302 9.842 85.6742 9.674C85.6222 9.502 85.5422 9.352 85.4342 9.224C85.3262 9.096 85.1882 8.996 85.0202 8.924C84.8562 8.848 84.6642 8.81 84.4442 8.81C84.0162 8.81 83.6782 8.932 83.4302 9.176C83.1862 9.42 83.0302 9.766 82.9622 10.214H85.7582ZM82.9322 11.108C82.9562 11.424 83.0122 11.698 83.1002 11.93C83.1882 12.158 83.3042 12.348 83.4482 12.5C83.5922 12.648 83.7622 12.76 83.9582 12.836C84.1582 12.908 84.3782 12.944 84.6182 12.944C84.8582 12.944 85.0642 12.916 85.2362 12.86C85.4122 12.804 85.5642 12.742 85.6922 12.674C85.8242 12.606 85.9382 12.544 86.0342 12.488C86.1342 12.432 86.2302 12.404 86.3222 12.404C86.4462 12.404 86.5382 12.45 86.5982 12.542L87.0242 13.082C86.8602 13.274 86.6762 13.436 86.4722 13.568C86.2682 13.696 86.0542 13.8 85.8302 13.88C85.6102 13.956 85.3842 14.01 85.1522 14.042C84.9242 14.074 84.7022 14.09 84.4862 14.09C84.0582 14.09 83.6602 14.02 83.2922 13.88C82.9242 13.736 82.6042 13.526 82.3322 13.25C82.0602 12.97 81.8462 12.626 81.6902 12.218C81.5342 11.806 81.4562 11.33 81.4562 10.79C81.4562 10.37 81.5242 9.976 81.6602 9.608C81.7962 9.236 81.9902 8.914 82.2422 8.642C82.4982 8.366 82.8082 8.148 83.1722 7.988C83.5402 7.828 83.9542 7.748 84.4142 7.748C84.8022 7.748 85.1602 7.81 85.4882 7.934C85.8162 8.058 86.0982 8.24 86.3342 8.48C86.5702 8.716 86.7542 9.008 86.8862 9.356C87.0222 9.7 87.0902 10.094 87.0902 10.538C87.0902 10.762 87.0662 10.914 87.0182 10.994C86.9702 11.07 86.8782 11.108 86.7422 11.108H82.9322ZM92.4383 9.044C92.3983 9.108 92.3563 9.154 92.3123 9.182C92.2683 9.206 92.2123 9.218 92.1443 9.218C92.0723 9.218 91.9943 9.198 91.9103 9.158C91.8303 9.118 91.7363 9.074 91.6283 9.026C91.5203 8.974 91.3963 8.928 91.2563 8.888C91.1203 8.848 90.9583 8.828 90.7703 8.828C90.4783 8.828 90.2483 8.89 90.0803 9.014C89.9163 9.138 89.8343 9.3 89.8343 9.5C89.8343 9.632 89.8763 9.744 89.9603 9.836C90.0483 9.924 90.1623 10.002 90.3023 10.07C90.4463 10.138 90.6083 10.2 90.7883 10.256C90.9683 10.308 91.1503 10.366 91.3343 10.43C91.5223 10.494 91.7063 10.568 91.8863 10.652C92.0663 10.732 92.2263 10.836 92.3663 10.964C92.5103 11.088 92.6243 11.238 92.7083 11.414C92.7963 11.59 92.8403 11.802 92.8403 12.05C92.8403 12.346 92.7863 12.62 92.6783 12.872C92.5743 13.12 92.4183 13.336 92.2103 13.52C92.0023 13.7 91.7443 13.842 91.4363 13.946C91.1323 14.046 90.7803 14.096 90.3803 14.096C90.1683 14.096 89.9603 14.076 89.7563 14.036C89.5563 14 89.3623 13.948 89.1743 13.88C88.9903 13.812 88.8183 13.732 88.6583 13.64C88.5023 13.548 88.3643 13.448 88.2443 13.34L88.5863 12.776C88.6303 12.708 88.6823 12.656 88.7423 12.62C88.8023 12.584 88.8783 12.566 88.9703 12.566C89.0623 12.566 89.1483 12.592 89.2283 12.644C89.3123 12.696 89.4083 12.752 89.5163 12.812C89.6243 12.872 89.7503 12.928 89.8943 12.98C90.0423 13.032 90.2283 13.058 90.4523 13.058C90.6283 13.058 90.7783 13.038 90.9023 12.998C91.0303 12.954 91.1343 12.898 91.2143 12.83C91.2983 12.762 91.3583 12.684 91.3943 12.596C91.4343 12.504 91.4543 12.41 91.4543 12.314C91.4543 12.17 91.4103 12.052 91.3223 11.96C91.2383 11.868 91.1243 11.788 90.9803 11.72C90.8403 11.652 90.6783 11.592 90.4943 11.54C90.3143 11.484 90.1283 11.424 89.9363 11.36C89.7483 11.296 89.5623 11.222 89.3783 11.138C89.1983 11.05 89.0363 10.94 88.8923 10.808C88.7523 10.676 88.6383 10.514 88.5503 10.322C88.4663 10.13 88.4243 9.898 88.4243 9.626C88.4243 9.374 88.4743 9.134 88.5743 8.906C88.6743 8.678 88.8203 8.48 89.0123 8.312C89.2083 8.14 89.4503 8.004 89.7383 7.904C90.0303 7.8 90.3663 7.748 90.7463 7.748C91.1703 7.748 91.5563 7.818 91.9043 7.958C92.2523 8.098 92.5423 8.282 92.7743 8.51L92.4383 9.044ZM98.1918 9.044C98.1518 9.108 98.1098 9.154 98.0658 9.182C98.0218 9.206 97.9658 9.218 97.8978 9.218C97.8258 9.218 97.7478 9.198 97.6638 9.158C97.5838 9.118 97.4898 9.074 97.3818 9.026C97.2738 8.974 97.1498 8.928 97.0098 8.888C96.8738 8.848 96.7118 8.828 96.5238 8.828C96.2318 8.828 96.0018 8.89 95.8338 9.014C95.6698 9.138 95.5878 9.3 95.5878 9.5C95.5878 9.632 95.6298 9.744 95.7138 9.836C95.8018 9.924 95.9158 10.002 96.0558 10.07C96.1998 10.138 96.3618 10.2 96.5418 10.256C96.7218 10.308 96.9038 10.366 97.0878 10.43C97.2758 10.494 97.4598 10.568 97.6398 10.652C97.8198 10.732 97.9798 10.836 98.1198 10.964C98.2638 11.088 98.3778 11.238 98.4618 11.414C98.5498 11.59 98.5938 11.802 98.5938 12.05C98.5938 12.346 98.5398 12.62 98.4318 12.872C98.3278 13.12 98.1718 13.336 97.9638 13.52C97.7558 13.7 97.4978 13.842 97.1898 13.946C96.8858 14.046 96.5338 14.096 96.1338 14.096C95.9218 14.096 95.7138 14.076 95.5098 14.036C95.3098 14 95.1158 13.948 94.9278 13.88C94.7438 13.812 94.5718 13.732 94.4118 13.64C94.2558 13.548 94.1178 13.448 93.9978 13.34L94.3398 12.776C94.3838 12.708 94.4358 12.656 94.4958 12.62C94.5558 12.584 94.6318 12.566 94.7238 12.566C94.8158 12.566 94.9018 12.592 94.9818 12.644C95.0658 12.696 95.1618 12.752 95.2698 12.812C95.3778 12.872 95.5038 12.928 95.6478 12.98C95.7958 13.032 95.9818 13.058 96.2058 13.058C96.3818 13.058 96.5318 13.038 96.6558 12.998C96.7838 12.954 96.8878 12.898 96.9678 12.83C97.0518 12.762 97.1118 12.684 97.1478 12.596C97.1878 12.504 97.2078 12.41 97.2078 12.314C97.2078 12.17 97.1638 12.052 97.0758 11.96C96.9918 11.868 96.8778 11.788 96.7338 11.72C96.5938 11.652 96.4318 11.592 96.2478 11.54C96.0678 11.484 95.8818 11.424 95.6898 11.36C95.5018 11.296 95.3158 11.222 95.1318 11.138C94.9518 11.05 94.7898 10.94 94.6458 10.808C94.5058 10.676 94.3918 10.514 94.3038 10.322C94.2198 10.13 94.1778 9.898 94.1778 9.626C94.1778 9.374 94.2278 9.134 94.3278 8.906C94.4278 8.678 94.5738 8.48 94.7658 8.312C94.9618 8.14 95.2038 8.004 95.4918 7.904C95.7838 7.8 96.1198 7.748 96.4998 7.748C96.9238 7.748 97.3098 7.818 97.6578 7.958C98.0058 8.098 98.2958 8.282 98.5278 8.51L98.1918 9.044ZM105.639 14.096C105.103 14.096 104.691 13.946 104.403 13.646C104.119 13.342 103.977 12.924 103.977 12.392V8.954H103.347C103.267 8.954 103.199 8.928 103.143 8.876C103.087 8.824 103.059 8.746 103.059 8.642V8.054L104.049 7.892L104.361 6.212C104.381 6.132 104.419 6.07 104.475 6.026C104.531 5.982 104.603 5.96 104.691 5.96H105.459V7.898H107.103V8.954H105.459V12.29C105.459 12.482 105.505 12.632 105.597 12.74C105.693 12.848 105.823 12.902 105.987 12.902C106.079 12.902 106.155 12.892 106.215 12.872C106.279 12.848 106.333 12.824 106.377 12.8C106.425 12.776 106.467 12.754 106.503 12.734C106.539 12.71 106.575 12.698 106.611 12.698C106.655 12.698 106.691 12.71 106.719 12.734C106.747 12.754 106.777 12.786 106.809 12.83L107.253 13.55C107.037 13.73 106.789 13.866 106.509 13.958C106.229 14.05 105.939 14.096 105.639 14.096ZM111.209 7.748C111.665 7.748 112.079 7.822 112.451 7.97C112.827 8.118 113.147 8.328 113.411 8.6C113.679 8.872 113.885 9.204 114.029 9.596C114.173 9.988 114.245 10.426 114.245 10.91C114.245 11.398 114.173 11.838 114.029 12.23C113.885 12.622 113.679 12.956 113.411 13.232C113.147 13.508 112.827 13.72 112.451 13.868C112.079 14.016 111.665 14.09 111.209 14.09C110.749 14.09 110.331 14.016 109.955 13.868C109.579 13.72 109.257 13.508 108.989 13.232C108.725 12.956 108.519 12.622 108.371 12.23C108.227 11.838 108.155 11.398 108.155 10.91C108.155 10.426 108.227 9.988 108.371 9.596C108.519 9.204 108.725 8.872 108.989 8.6C109.257 8.328 109.579 8.118 109.955 7.97C110.331 7.822 110.749 7.748 111.209 7.748ZM111.209 12.95C111.721 12.95 112.099 12.778 112.343 12.434C112.591 12.09 112.715 11.586 112.715 10.922C112.715 10.258 112.591 9.752 112.343 9.404C112.099 9.056 111.721 8.882 111.209 8.882C110.689 8.882 110.303 9.058 110.051 9.41C109.803 9.758 109.679 10.262 109.679 10.922C109.679 11.582 109.803 12.086 110.051 12.434C110.303 12.778 110.689 12.95 111.209 12.95Z" fill="#7367F0"/>
<path d="M57.67 27.662C57.67 28.298 57.564 28.882 57.352 29.414C57.14 29.946 56.842 30.404 56.458 30.788C56.074 31.172 55.612 31.47 55.072 31.682C54.532 31.894 53.932 32 53.272 32H49.966V23.324H53.272C53.932 23.324 54.532 23.432 55.072 23.648C55.612 23.86 56.074 24.158 56.458 24.542C56.842 24.922 57.14 25.378 57.352 25.91C57.564 26.442 57.67 27.026 57.67 27.662ZM56.014 27.662C56.014 27.186 55.95 26.76 55.822 26.384C55.698 26.004 55.516 25.684 55.276 25.424C55.04 25.16 54.752 24.958 54.412 24.818C54.076 24.678 53.696 24.608 53.272 24.608H51.586V30.716H53.272C53.696 30.716 54.076 30.646 54.412 30.506C54.752 30.366 55.04 30.166 55.276 29.906C55.516 29.642 55.698 29.322 55.822 28.946C55.95 28.566 56.014 28.138 56.014 27.662ZM61.9829 25.748C62.4389 25.748 62.8529 25.822 63.2249 25.97C63.6009 26.118 63.9209 26.328 64.1849 26.6C64.4529 26.872 64.6589 27.204 64.8029 27.596C64.9469 27.988 65.0189 28.426 65.0189 28.91C65.0189 29.398 64.9469 29.838 64.8029 30.23C64.6589 30.622 64.4529 30.956 64.1849 31.232C63.9209 31.508 63.6009 31.72 63.2249 31.868C62.8529 32.016 62.4389 32.09 61.9829 32.09C61.5229 32.09 61.1049 32.016 60.7289 31.868C60.3529 31.72 60.0309 31.508 59.7629 31.232C59.4989 30.956 59.2929 30.622 59.1449 30.23C59.0009 29.838 58.9289 29.398 58.9289 28.91C58.9289 28.426 59.0009 27.988 59.1449 27.596C59.2929 27.204 59.4989 26.872 59.7629 26.6C60.0309 26.328 60.3529 26.118 60.7289 25.97C61.1049 25.822 61.5229 25.748 61.9829 25.748ZM61.9829 30.95C62.4949 30.95 62.8729 30.778 63.1169 30.434C63.3649 30.09 63.4889 29.586 63.4889 28.922C63.4889 28.258 63.3649 27.752 63.1169 27.404C62.8729 27.056 62.4949 26.882 61.9829 26.882C61.4629 26.882 61.0769 27.058 60.8249 27.41C60.5769 27.758 60.4529 28.262 60.4529 28.922C60.4529 29.582 60.5769 30.086 60.8249 30.434C61.0769 30.778 61.4629 30.95 61.9829 30.95ZM69.3535 25.748C69.8095 25.748 70.2235 25.822 70.5955 25.97C70.9715 26.118 71.2915 26.328 71.5555 26.6C71.8235 26.872 72.0295 27.204 72.1735 27.596C72.3175 27.988 72.3895 28.426 72.3895 28.91C72.3895 29.398 72.3175 29.838 72.1735 30.23C72.0295 30.622 71.8235 30.956 71.5555 31.232C71.2915 31.508 70.9715 31.72 70.5955 31.868C70.2235 32.016 69.8095 32.09 69.3535 32.09C68.8935 32.09 68.4755 32.016 68.0995 31.868C67.7235 31.72 67.4015 31.508 67.1335 31.232C66.8695 30.956 66.6635 30.622 66.5155 30.23C66.3715 29.838 66.2995 29.398 66.2995 28.91C66.2995 28.426 66.3715 27.988 66.5155 27.596C66.6635 27.204 66.8695 26.872 67.1335 26.6C67.4015 26.328 67.7235 26.118 68.0995 25.97C68.4755 25.822 68.8935 25.748 69.3535 25.748ZM69.3535 30.95C69.8655 30.95 70.2435 30.778 70.4875 30.434C70.7355 30.09 70.8595 29.586 70.8595 28.922C70.8595 28.258 70.7355 27.752 70.4875 27.404C70.2435 27.056 69.8655 26.882 69.3535 26.882C68.8335 26.882 68.4475 27.058 68.1955 27.41C67.9475 27.758 67.8235 28.262 67.8235 28.922C67.8235 29.582 67.9475 30.086 68.1955 30.434C68.4475 30.778 68.8335 30.95 69.3535 30.95ZM75.3981 26.912C75.5901 26.544 75.8181 26.256 76.0821 26.048C76.3461 25.836 76.6581 25.73 77.0181 25.73C77.3021 25.73 77.5301 25.792 77.7021 25.916L77.6061 27.026C77.5861 27.098 77.5561 27.15 77.5161 27.182C77.4801 27.21 77.4301 27.224 77.3661 27.224C77.3061 27.224 77.2161 27.214 77.0961 27.194C76.9801 27.174 76.8661 27.164 76.7541 27.164C76.5901 27.164 76.4441 27.188 76.3161 27.236C76.1881 27.284 76.0721 27.354 75.9681 27.446C75.8681 27.534 75.7781 27.642 75.6981 27.77C75.6221 27.898 75.5501 28.044 75.4821 28.208V32H74.0001V25.844H74.8701C75.0221 25.844 75.1281 25.872 75.1881 25.928C75.2481 25.98 75.2881 26.076 75.3081 26.216L75.3981 26.912ZM91.7388 23.324V32H90.3168V26.396C90.3168 26.172 90.3288 25.93 90.3528 25.67L87.7308 30.596C87.6068 30.832 87.4168 30.95 87.1608 30.95H86.9328C86.6768 30.95 86.4868 30.832 86.3628 30.596L83.7108 25.652C83.7228 25.784 83.7328 25.914 83.7408 26.042C83.7488 26.17 83.7528 26.288 83.7528 26.396V32H82.3308V23.324H83.5488C83.6208 23.324 83.6828 23.326 83.7348 23.33C83.7868 23.334 83.8328 23.344 83.8728 23.36C83.9168 23.376 83.9548 23.402 83.9868 23.438C84.0228 23.474 84.0568 23.522 84.0888 23.582L86.6868 28.4C86.7548 28.528 86.8168 28.66 86.8728 28.796C86.9328 28.932 86.9908 29.072 87.0468 29.216C87.1028 29.068 87.1608 28.926 87.2208 28.79C87.2808 28.65 87.3448 28.516 87.4128 28.388L89.9748 23.582C90.0068 23.522 90.0408 23.474 90.0768 23.438C90.1128 23.402 90.1508 23.376 90.1908 23.36C90.2348 23.344 90.2828 23.334 90.3348 23.33C90.3868 23.326 90.4488 23.324 90.5208 23.324H91.7388ZM97.0203 29.372C96.5923 29.392 96.2323 29.43 95.9403 29.486C95.6483 29.538 95.4143 29.606 95.2383 29.69C95.0623 29.774 94.9363 29.872 94.8603 29.984C94.7843 30.096 94.7463 30.218 94.7463 30.35C94.7463 30.61 94.8223 30.796 94.9743 30.908C95.1303 31.02 95.3323 31.076 95.5803 31.076C95.8843 31.076 96.1463 31.022 96.3663 30.914C96.5903 30.802 96.8083 30.634 97.0203 30.41V29.372ZM93.6243 26.702C94.3323 26.054 95.1843 25.73 96.1803 25.73C96.5403 25.73 96.8623 25.79 97.1463 25.91C97.4303 26.026 97.6703 26.19 97.8663 26.402C98.0623 26.61 98.2103 26.86 98.3103 27.152C98.4143 27.444 98.4663 27.764 98.4663 28.112V32H97.7943C97.6543 32 97.5463 31.98 97.4703 31.94C97.3943 31.896 97.3343 31.81 97.2903 31.682L97.1583 31.238C97.0023 31.378 96.8503 31.502 96.7023 31.61C96.5543 31.714 96.4003 31.802 96.2403 31.874C96.0803 31.946 95.9083 32 95.7243 32.036C95.5443 32.076 95.3443 32.096 95.1243 32.096C94.8643 32.096 94.6243 32.062 94.4043 31.994C94.1843 31.922 93.9943 31.816 93.8343 31.676C93.6743 31.536 93.5503 31.362 93.4623 31.154C93.3743 30.946 93.3303 30.704 93.3303 30.428C93.3303 30.272 93.3563 30.118 93.4083 29.966C93.4603 29.81 93.5443 29.662 93.6603 29.522C93.7803 29.382 93.9343 29.25 94.1223 29.126C94.3103 29.002 94.5403 28.894 94.8123 28.802C95.0883 28.71 95.4083 28.636 95.7723 28.58C96.1363 28.52 96.5523 28.484 97.0203 28.472V28.112C97.0203 27.7 96.9323 27.396 96.7563 27.2C96.5803 27 96.3263 26.9 95.9943 26.9C95.7543 26.9 95.5543 26.928 95.3943 26.984C95.2383 27.04 95.1003 27.104 94.9803 27.176C94.8603 27.244 94.7503 27.306 94.6503 27.362C94.5543 27.418 94.4463 27.446 94.3263 27.446C94.2223 27.446 94.1343 27.42 94.0623 27.368C93.9903 27.312 93.9323 27.248 93.8883 27.176L93.6243 26.702ZM101.74 26.912C101.932 26.544 102.16 26.256 102.424 26.048C102.688 25.836 103 25.73 103.36 25.73C103.644 25.73 103.872 25.792 104.044 25.916L103.948 27.026C103.928 27.098 103.898 27.15 103.858 27.182C103.822 27.21 103.772 27.224 103.708 27.224C103.648 27.224 103.558 27.214 103.438 27.194C103.322 27.174 103.208 27.164 103.096 27.164C102.932 27.164 102.786 27.188 102.658 27.236C102.53 27.284 102.414 27.354 102.31 27.446C102.21 27.534 102.12 27.642 102.04 27.77C101.964 27.898 101.892 28.044 101.824 28.208V32H100.342V25.844H101.212C101.364 25.844 101.47 25.872 101.53 25.928C101.59 25.98 101.63 26.076 101.65 26.216L101.74 26.912ZM106.781 23.084V28.19H107.057C107.157 28.19 107.235 28.178 107.291 28.154C107.351 28.126 107.411 28.072 107.471 27.992L109.001 26.102C109.065 26.018 109.135 25.954 109.211 25.91C109.291 25.866 109.393 25.844 109.517 25.844H110.873L108.959 28.13C108.823 28.31 108.675 28.448 108.515 28.544C108.599 28.604 108.673 28.674 108.737 28.754C108.805 28.834 108.869 28.92 108.929 29.012L110.981 32H109.643C109.527 32 109.427 31.982 109.343 31.946C109.259 31.906 109.189 31.836 109.133 31.736L107.561 29.402C107.505 29.31 107.447 29.25 107.387 29.222C107.327 29.194 107.237 29.18 107.117 29.18H106.781V32H105.299V23.084H106.781ZM115.838 28.214C115.838 28.022 115.81 27.842 115.754 27.674C115.702 27.502 115.622 27.352 115.514 27.224C115.406 27.096 115.268 26.996 115.1 26.924C114.936 26.848 114.744 26.81 114.524 26.81C114.096 26.81 113.758 26.932 113.51 27.176C113.266 27.42 113.11 27.766 113.042 28.214H115.838ZM113.012 29.108C113.036 29.424 113.092 29.698 113.18 29.93C113.268 30.158 113.384 30.348 113.528 30.5C113.672 30.648 113.842 30.76 114.038 30.836C114.238 30.908 114.458 30.944 114.698 30.944C114.938 30.944 115.144 30.916 115.316 30.86C115.492 30.804 115.644 30.742 115.772 30.674C115.904 30.606 116.018 30.544 116.114 30.488C116.214 30.432 116.31 30.404 116.402 30.404C116.526 30.404 116.618 30.45 116.678 30.542L117.104 31.082C116.94 31.274 116.756 31.436 116.552 31.568C116.348 31.696 116.134 31.8 115.91 31.88C115.69 31.956 115.464 32.01 115.232 32.042C115.004 32.074 114.782 32.09 114.566 32.09C114.138 32.09 113.74 32.02 113.372 31.88C113.004 31.736 112.684 31.526 112.412 31.25C112.14 30.97 111.926 30.626 111.77 30.218C111.614 29.806 111.536 29.33 111.536 28.79C111.536 28.37 111.604 27.976 111.74 27.608C111.876 27.236 112.07 26.914 112.322 26.642C112.578 26.366 112.888 26.148 113.252 25.988C113.62 25.828 114.034 25.748 114.494 25.748C114.882 25.748 115.24 25.81 115.568 25.934C115.896 26.058 116.178 26.24 116.414 26.48C116.65 26.716 116.834 27.008 116.966 27.356C117.102 27.7 117.17 28.094 117.17 28.538C117.17 28.762 117.146 28.914 117.098 28.994C117.05 29.07 116.958 29.108 116.822 29.108H113.012ZM124.914 32H123.432V26.954H120.576V30.29C120.576 30.482 120.622 30.632 120.714 30.74C120.81 30.848 120.94 30.902 121.104 30.902C121.196 30.902 121.272 30.892 121.332 30.872C121.396 30.848 121.45 30.824 121.494 30.8C121.542 30.776 121.584 30.754 121.62 30.734C121.656 30.71 121.692 30.698 121.728 30.698C121.772 30.698 121.808 30.71 121.836 30.734C121.864 30.754 121.894 30.786 121.926 30.83L122.37 31.55C122.154 31.73 121.906 31.866 121.626 31.958C121.346 32.05 121.056 32.096 120.756 32.096C120.22 32.096 119.808 31.946 119.52 31.646C119.236 31.342 119.094 30.924 119.094 30.392V26.954H118.464C118.384 26.954 118.316 26.928 118.26 26.876C118.204 26.824 118.176 26.746 118.176 26.642V26.054L119.166 25.886L119.478 24.212C119.498 24.132 119.536 24.07 119.592 24.026C119.648 23.982 119.72 23.96 119.808 23.96H120.576V25.898H124.914V32ZM125.172 24.026C125.172 24.154 125.146 24.276 125.094 24.392C125.042 24.504 124.972 24.602 124.884 24.686C124.8 24.77 124.698 24.838 124.578 24.89C124.462 24.938 124.338 24.962 124.206 24.962C124.078 24.962 123.958 24.938 123.846 24.89C123.734 24.838 123.636 24.77 123.552 24.686C123.468 24.602 123.4 24.504 123.348 24.392C123.3 24.276 123.276 24.154 123.276 24.026C123.276 23.894 123.3 23.772 123.348 23.66C123.4 23.544 123.468 23.444 123.552 23.36C123.636 23.272 123.734 23.204 123.846 23.156C123.958 23.104 124.078 23.078 124.206 23.078C124.338 23.078 124.462 23.104 124.578 23.156C124.698 23.204 124.8 23.272 124.884 23.36C124.972 23.444 125.042 23.544 125.094 23.66C125.146 23.772 125.172 23.894 125.172 24.026ZM128.293 26.6C128.417 26.476 128.547 26.362 128.683 26.258C128.823 26.15 128.969 26.06 129.121 25.988C129.277 25.912 129.443 25.854 129.619 25.814C129.795 25.77 129.987 25.748 130.195 25.748C130.531 25.748 130.829 25.806 131.089 25.922C131.349 26.034 131.565 26.194 131.737 26.402C131.913 26.606 132.045 26.852 132.133 27.14C132.225 27.424 132.271 27.738 132.271 28.082V32H130.789V28.082C130.789 27.706 130.703 27.416 130.531 27.212C130.359 27.004 130.097 26.9 129.745 26.9C129.489 26.9 129.249 26.958 129.025 27.074C128.801 27.19 128.589 27.348 128.389 27.548V32H126.907V25.844H127.813C128.005 25.844 128.131 25.934 128.191 26.114L128.293 26.6ZM136.41 28.772C136.594 28.772 136.754 28.748 136.89 28.7C137.026 28.648 137.138 28.578 137.226 28.49C137.318 28.402 137.386 28.296 137.43 28.172C137.478 28.048 137.502 27.912 137.502 27.764C137.502 27.46 137.41 27.22 137.226 27.044C137.046 26.864 136.774 26.774 136.41 26.774C136.046 26.774 135.772 26.864 135.588 27.044C135.408 27.22 135.318 27.46 135.318 27.764C135.318 27.908 135.34 28.042 135.384 28.166C135.432 28.29 135.5 28.398 135.588 28.49C135.68 28.578 135.794 28.648 135.93 28.7C136.07 28.748 136.23 28.772 136.41 28.772ZM138.084 32.276C138.084 32.156 138.048 32.058 137.976 31.982C137.904 31.906 137.806 31.848 137.682 31.808C137.558 31.764 137.412 31.732 137.244 31.712C137.08 31.692 136.904 31.678 136.716 31.67C136.532 31.658 136.34 31.648 136.14 31.64C135.944 31.632 135.752 31.616 135.564 31.592C135.4 31.684 135.266 31.792 135.162 31.916C135.062 32.04 135.012 32.184 135.012 32.348C135.012 32.456 135.038 32.556 135.09 32.648C135.146 32.744 135.232 32.826 135.348 32.894C135.468 32.962 135.622 33.014 135.81 33.05C135.998 33.09 136.228 33.11 136.5 33.11C136.776 33.11 137.014 33.088 137.214 33.044C137.414 33.004 137.578 32.946 137.706 32.87C137.838 32.798 137.934 32.71 137.994 32.606C138.054 32.506 138.084 32.396 138.084 32.276ZM139.56 26.054V26.606C139.56 26.782 139.454 26.89 139.242 26.93L138.69 27.032C138.774 27.244 138.816 27.476 138.816 27.728C138.816 28.032 138.754 28.308 138.63 28.556C138.51 28.8 138.342 29.008 138.126 29.18C137.91 29.352 137.654 29.486 137.358 29.582C137.066 29.674 136.75 29.72 136.41 29.72C136.29 29.72 136.174 29.714 136.062 29.702C135.95 29.69 135.84 29.674 135.732 29.654C135.54 29.77 135.444 29.9 135.444 30.044C135.444 30.168 135.5 30.26 135.612 30.32C135.728 30.376 135.88 30.416 136.068 30.44C136.256 30.464 136.47 30.48 136.71 30.488C136.95 30.492 137.196 30.504 137.448 30.524C137.7 30.544 137.946 30.58 138.186 30.632C138.426 30.68 138.64 30.758 138.828 30.866C139.016 30.974 139.166 31.122 139.278 31.31C139.394 31.494 139.452 31.732 139.452 32.024C139.452 32.296 139.384 32.56 139.248 32.816C139.116 33.072 138.922 33.3 138.666 33.5C138.414 33.7 138.102 33.86 137.73 33.98C137.362 34.104 136.942 34.166 136.47 34.166C136.006 34.166 135.602 34.12 135.258 34.028C134.914 33.94 134.628 33.82 134.4 33.668C134.172 33.52 134.002 33.348 133.89 33.152C133.778 32.956 133.722 32.752 133.722 32.54C133.722 32.252 133.808 32.012 133.98 31.82C134.156 31.624 134.396 31.468 134.7 31.352C134.536 31.268 134.406 31.156 134.31 31.016C134.214 30.876 134.166 30.692 134.166 30.464C134.166 30.372 134.182 30.278 134.214 30.182C134.25 30.082 134.3 29.984 134.364 29.888C134.432 29.792 134.516 29.702 134.616 29.618C134.716 29.53 134.834 29.452 134.97 29.384C134.658 29.216 134.412 28.992 134.232 28.712C134.056 28.432 133.968 28.104 133.968 27.728C133.968 27.424 134.028 27.15 134.148 26.906C134.272 26.658 134.442 26.448 134.658 26.276C134.878 26.1 135.136 25.966 135.432 25.874C135.732 25.782 136.058 25.736 136.41 25.736C136.674 25.736 136.922 25.764 137.154 25.82C137.386 25.872 137.598 25.95 137.79 26.054H139.56ZM140.764 31.184C140.764 31.06 140.786 30.942 140.83 30.83C140.878 30.718 140.942 30.622 141.022 30.542C141.102 30.462 141.198 30.398 141.31 30.35C141.422 30.302 141.542 30.278 141.67 30.278C141.798 30.278 141.916 30.302 142.024 30.35C142.136 30.398 142.232 30.462 142.312 30.542C142.396 30.622 142.462 30.718 142.51 30.83C142.558 30.942 142.582 31.06 142.582 31.184C142.582 31.312 142.558 31.432 142.51 31.544C142.462 31.652 142.396 31.746 142.312 31.826C142.232 31.906 142.136 31.968 142.024 32.012C141.916 32.06 141.798 32.084 141.67 32.084C141.542 32.084 141.422 32.06 141.31 32.012C141.198 31.968 141.102 31.906 141.022 31.826C140.942 31.746 140.878 31.652 140.83 31.544C140.786 31.432 140.764 31.312 140.764 31.184Z" fill="#6E6B7B"/>
<line x1="41" y1="3" x2="41" y2="33" stroke="url(#paint0_linear_785_201)"/>
<path d="M1.09373 4.00377C0.458133 3.99044 0.0118 4.54964 0 5.00377V29.0038C0.00333333 29.4941 0.4181 29.9474 0.906266 29.9934L14.9063 31.3267C14.9685 31.3327 15.0315 31.3327 15.0937 31.3267L29.0937 29.9934C29.5819 29.9474 29.997 29.4941 30 29.0038V5.00377C30.0033 4.44744 29.4601 3.95167 28.9063 4.00377L15 5.32671L1.09373 4.00377ZM2 6.0975L14 7.24337V29.2329L2 28.0871V6.0975ZM28 6.0975V28.0871L16 29.2329V7.24337L28 6.0975ZM4.77083 8.3371C4.19623 8.30033 3.6948 8.7734 3.66666 9.3371V18.0037C3.67 18.4909 4.078 18.9425 4.5625 18.9933L11.2292 19.66C11.7829 19.7179 12.3305 19.2271 12.3333 18.6704V10.0038C12.3367 9.51317 11.9254 9.0549 11.4375 9.00377L4.77083 8.3371ZM25.2292 9.67043L18.5625 10.3371C18.0416 10.3916 17.6173 10.9152 17.6719 11.4361C17.7264 11.9569 18.25 12.3812 18.7708 12.3267L25.4375 11.66C25.9584 11.6055 26.3827 11.0819 26.3281 10.5611C26.2736 10.0402 25.75 9.6159 25.2292 9.67043ZM5.66666 10.4413L10.3333 10.8996V17.5558L5.66666 17.0975V10.4413ZM25.2292 14.3371L18.5625 15.0038C18.0416 15.0583 17.6173 15.5819 17.6719 16.1027C17.7264 16.6236 18.25 17.0479 18.7708 16.9933L25.4375 16.3267C25.9584 16.2722 26.3827 15.7486 26.3281 15.2277C26.2736 14.7069 25.75 14.2826 25.2292 14.3371ZM25.2292 19.0037L18.5625 19.6704C18.0416 19.7249 17.6173 20.2485 17.6719 20.7694C17.7264 21.2903 18.25 21.7146 18.7708 21.6601L25.4375 20.9934C25.9584 20.9389 26.3827 20.4153 26.3281 19.8944C26.2736 19.3735 25.75 18.9492 25.2292 19.0037ZM3.6146 21.2746C3.58726 21.7983 4.03883 22.2995 4.5625 22.3267L11.2292 22.9934C11.7501 23.048 12.2788 22.6289 12.3333 22.108C12.3879 21.587 11.9584 21.0583 11.4375 21.0038L4.77083 20.3371C4.1312 20.3171 3.64303 20.8218 3.6146 21.2746ZM3.6146 24.6079C3.58726 25.1316 4.03883 25.6328 4.5625 25.66L11.2292 26.3267C11.7501 26.3813 12.2788 25.9622 12.3333 25.4413C12.3879 24.9203 11.9584 24.3916 11.4375 24.3371L4.77083 23.6704C4.0963 23.6154 3.64303 24.1551 3.6146 24.6079ZM25.2292 23.6704L18.5625 24.3371C18.0416 24.3917 17.6173 24.9152 17.6719 25.4361C17.7264 25.9569 18.25 26.3812 18.7708 26.3267L25.4375 25.66C25.9584 25.6055 26.3827 25.0819 26.3281 24.5611C26.2736 24.0402 25.75 23.6159 25.2292 23.6704Z" fill="#6E6B7B"/>
<defs>
<linearGradient id="paint0_linear_785_201" x1="40.9961" y1="2.96154" x2="40.9961" y2="32.9615" gradientUnits="userSpaceOnUse">
<stop stop-color="#7367F0"/>
<stop offset="1" stop-color="#6E6B7B"/>
</linearGradient>
</defs>
</svg>
