<svg xmlns="http://www.w3.org/2000/svg" viewBox="0 0 25 25"><defs><style>.cls-1{fill:#0e0e0e;}.cls-2{fill:#0f0f0f;}.cls-3{fill:#0d0d0d;}.cls-4{fill:#0d0e0e;}.cls-5{fill:#090909;}.cls-6{fill:#131414;}.cls-7{fill:#0f1010;}.cls-8{fill:#101110;}.cls-9{fill:#101010;}</style></defs><g id="Layer_2" data-name="Layer 2"><g id="Layer_1-2" data-name="Layer 1"><path class="cls-1" d="M20,4.37c-.09-.11-.22,0-.33-.09a.35.35,0,0,1-.28-.41.32.32,0,0,1,.33-.32c.45,0,.9,0,1.35,0,.27,0,.36.21.35.46v1.1c0,.24-.06.46-.34.47s-.42-.16-.42-.44a1.39,1.39,0,0,0-.05-.23L18.79,6.74c-.21.2-.4.42-.61.6s-.39.24-.58,0-.11-.39.07-.57c.71-.71,1.41-1.43,2.11-2.14C19.88,4.58,20,4.51,20,4.37Z"/><path class="cls-1" d="M23.6,12.9H20.42c-.3,0-.68,0-.68-.39s.39-.41.7-.41h3.12c0-.19-.16-.25-.19-.39a.41.41,0,0,1,.14-.45.29.29,0,0,1,.41,0c.33.31.66.62,1,1a.39.39,0,0,1-.05.58c-.25.25-.49.5-.75.74s-.34.36-.6.15-.16-.41,0-.62A1.65,1.65,0,0,0,23.6,12.9Z"/><path class="cls-2" d="M4.86,20.64a2.38,2.38,0,0,1,.5.1.33.33,0,0,1,.22.4.34.34,0,0,1-.35.3c-.44,0-.87,0-1.31,0A.4.4,0,0,1,3.54,21c0-.35,0-.7,0-1.05s0-.5.33-.53.42.2.44.49c0,0,0,.08.08.19l1.85-1.89.54-.52c.19-.19.41-.28.62-.07s.07.43-.1.61L6,19.55Z"/><path class="cls-1" d="M20.63,20c.11-.07.05-.21.08-.31a.38.38,0,0,1,.42-.29.33.33,0,0,1,.31.34,12.34,12.34,0,0,1,0,1.36c0,.26-.21.35-.46.35s-.7,0-1.06,0-.49-.05-.5-.36.18-.41.46-.41a1.72,1.72,0,0,0,.28-.09l-1.89-1.8c-.21-.2-.4-.41-.6-.61s-.24-.37-.06-.57.4-.13.57,0c.49.47,1,1,1.47,1.44C20,19.41,20.3,19.71,20.63,20Z"/><path class="cls-1" d="M4.91,4.37,6.73,6.19c.17.17.34.32.5.5s.43.4.16.68-.52,0-.72-.16L5.46,6l-1-1c-.16.1-.1.23-.13.34a.35.35,0,0,1-.4.29.32.32,0,0,1-.32-.33c0-.45,0-.9,0-1.35A.35.35,0,0,1,4,3.55h1.1c.25,0,.5,0,.51.35s-.19.39-.45.41A.69.69,0,0,0,4.91,4.37Z"/><path class="cls-1" d="M12.1,23.61V20.23c0-.26.07-.49.37-.5s.42.21.42.5c0,.94,0,1.88,0,2.82v.5c.18.06.21-.13.34-.17a.41.41,0,0,1,.49.13.32.32,0,0,1,0,.45c-.3.31-.61.62-.93.92a.38.38,0,0,1-.58,0c-.25-.25-.5-.49-.74-.75s-.38-.34-.17-.6.44-.17.66,0Z"/><path class="cls-3" d="M12.1,1.39a2.92,2.92,0,0,1-.45.24.33.33,0,0,1-.39-.14.29.29,0,0,1,0-.41c.31-.33.62-.66,1-1a.38.38,0,0,1,.58.05l.78.78c.16.16.31.33.12.56s-.41.18-.62,0a1.94,1.94,0,0,0-.2-.14c0,1.07,0,2.09,0,3.1,0,.32.12.78-.38.78s-.4-.47-.41-.81C12.09,3.44,12.1,2.44,12.1,1.39Z"/><path class="cls-4" d="M1.38,12.1H4.72c.42,0,.64.25.53.54s-.32.26-.55.26H1.44c-.06.19.12.23.16.35a.4.4,0,0,1-.12.5A.31.31,0,0,1,1,13.68c-.3-.28-.6-.58-.89-.88a.4.4,0,0,1,0-.62l.75-.75c.17-.16.35-.37.6-.15s.15.45,0,.66C1.44,12,1.43,12,1.38,12.1Z"/><path class="cls-5" d="M16.82,8.31a1.18,1.18,0,0,0-1.26-1.25H11.13A1.15,1.15,0,0,0,9.88,8.31c0,.34-.06.47-.43.46A1.15,1.15,0,0,0,8.18,10c0,1.09,0,2.18,0,3.27h0c0,1.09,0,2.18,0,3.27a1.21,1.21,0,0,0,1.36,1.36h4.28a1.14,1.14,0,0,0,1.29-1.25c0-.4.13-.46.49-.46A1.12,1.12,0,0,0,16.82,15Q16.83,11.66,16.82,8.31Zm-2.44,8.25c0,.28,0,.58-.39.58H9.32c-.39,0-.38-.32-.38-.59V13.34h0c0-1.09,0-2.18,0-3.27,0-.32.1-.51.43-.55s.52,0,.52.43c0,1.66,0,3.32,0,5a1.13,1.13,0,0,0,1.28,1.3H14C14.21,16.23,14.41,16.23,14.38,16.56Zm1.07-1.07H11.28c-.59,0-.66-.08-.66-.67,0-2.12,0-4.23,0-6.34,0-.45.15-.63.61-.63,1.43,0,2.85,0,4.28,0,.41,0,.56.16.56.57,0,1.09,0,2.18,0,3.27h0c0,1.06,0,2.11,0,3.17C16.07,15.31,15.9,15.49,15.45,15.49Z"/><path class="cls-6" d="M13.32,11.28h-1.1a.38.38,0,0,1-.43-.39c0-.27.17-.39.42-.39h2.26a.38.38,0,0,1,.43.39c0,.26-.17.39-.43.39Z"/><path class="cls-7" d="M13.34,12.06h1.11c.24,0,.45.08.45.36s-.2.39-.48.38H12.26c-.28,0-.46-.1-.47-.4s.2-.35.44-.35Z"/><path class="cls-8" d="M13.33,14.34H12.22c-.24,0-.43-.1-.43-.38s.19-.37.44-.37h2.21c.27,0,.47.1.45.41s-.21.35-.46.35h-1.1Z"/><path class="cls-9" d="M13.33,9.72h-1.1c-.24,0-.44-.08-.44-.36S12,9,12.25,9h2.2c.26,0,.44.1.45.36s-.17.39-.42.39Z"/></g></g></svg>