<svg width="22" height="21" viewBox="0 0 22 21" fill="none" xmlns="http://www.w3.org/2000/svg">
<path d="M21 1.5C21 1 20.8 0.6 20.4 0.3C20.2 0.2 20 0.1 19.8 0C17.4 0 15 0 12.7 0C12.7 0.1 12.6 0.1 12.5 0.1C11.9 0.3 11.4 0.9 11.4 1.6C11.4 4.7 11.4 7.7 11.4 10.8C11.4 11.6 12.1 12.3 12.9 12.3C15.1 12.3 17.3 12.3 19.5 12.3C20.3 12.3 21 11.6 21 10.8C21 7.7 21 4.6 21 1.5ZM19.3 10.1C19.3 10.4 19.3 10.4 19 10.4C17.1 10.4 15.2 10.4 13.4 10.4C13.1 10.4 13.1 10.4 13.1 10.1C13.1 7.4 13.1 4.8 13.1 2.1C13.1 1.8 13.1 1.8 13.4 1.8C15.3 1.8 17.1 1.8 19 1.8C19.3 1.8 19.3 1.9 19.3 2.1C19.3 3.4 19.3 4.8 19.3 6.1C19.3 7.5 19.3 8.8 19.3 10.1Z" fill="#6F6B7D"/>
<path d="M9.6 10.3002C9.6 9.4002 9 8.7002 8.1 8.7002C5.9 8.7002 3.7 8.7002 1.5 8.7002C0.8 8.7002 0.3 9.1002 0.1 9.7002C0.1 9.8002 0.1 9.8002 0 9.9002C0 13.2002 0 16.4002 0 19.7002C0 19.7002 0 19.7002 0 19.8002C0.3 20.6002 0.8 21.0002 1.6 21.0002C3.7 21.0002 5.9 21.0002 8 21.0002C8.1 21.0002 8.2 21.0002 8.3 21.0002C9.1 20.8002 9.6 20.2002 9.6 19.5002C9.6 18.3002 9.6 17.0002 9.6 15.8002C9.6 13.9002 9.6 12.1002 9.6 10.3002ZM8 18.9002C8 19.2002 8 19.2002 7.7 19.2002C5.8 19.2002 3.9 19.2002 2 19.2002C1.7 19.2002 1.7 19.1002 1.7 18.9002C1.7 17.6002 1.7 16.2002 1.7 14.9002C1.7 13.6002 1.7 12.2002 1.7 10.9002C1.7 10.6002 1.7 10.6002 2 10.6002C3.9 10.6002 5.8 10.6002 7.7 10.6002C8 10.6002 8 10.6002 8 10.9002C8 13.5002 8 16.2002 8 18.9002Z" fill="#6F6B7D"/>
<path d="M8.5 0.1C8.5 0 8.4 0.1 8.4 0C6 0 3.6 0 1.3 0C0.6 0 0.1 0.6 0 1.2C0 2.7 0 4.2 0 5.8C0.1 5.8 0.1 5.9 0.1 6C0.3 6.6 0.8 7 1.5 7C3.7 7 5.9 7 8.1 7C9 7 9.6 6.3 9.6 5.5C9.6 4.2 9.6 2.8 9.6 1.5C9.6 0.8 9.2 0.3 8.5 0.1ZM7.8 5.1C7.8 5.3 7.8 5.4 7.5 5.4C5.7 5.4 3.9 5.4 2.1 5.4C1.9 5.4 1.8 5.3 1.8 5.1C1.8 4.1 1.8 3 1.8 2C1.8 1.8 1.9 1.7 2.1 1.7C3 1.7 3.9 1.7 4.8 1.7C5.7 1.7 6.6 1.7 7.5 1.7C7.7 1.7 7.8 1.7 7.8 2C7.8 3 7.8 4 7.8 5.1Z" fill="#6F6B7D"/>
<path d="M19.5 14C17.3 14 15.1 14 13 14C12.1 14 11.5 14.7 11.4 15.5C11.4 16.8 11.4 18.1 11.4 19.4C11.4 20.3 12.1 20.9 13 20.9C14.1 20.9 15.2 20.9 16.3 20.9C17.4 20.9 18.5 20.9 19.6 20.9C20.5 20.9 21.1 20.2 21.1 19.4C21.1 18.1 21.1 16.8 21.1 15.5C21 14.7 20.3 14 19.5 14ZM19.3 19.1C19.3 19.4 19.2 19.4 19 19.4C17.1 19.4 15.3 19.4 13.4 19.4C13.1 19.4 13.1 19.4 13.1 19.1C13.1 18 13.1 16.9 13.1 15.8C13.1 15.5 13.1 15.5 13.4 15.5C14.3 15.5 15.3 15.5 16.2 15.5C17.1 15.5 18.1 15.5 19 15.5C19.3 15.5 19.3 15.5 19.3 15.8C19.3 17 19.3 18.1 19.3 19.1Z" fill="#6F6B7D"/>
</svg>
