<svg xmlns="http://www.w3.org/2000/svg" viewBox="0 0 25.06 25.05"><defs><style>.cls-1{fill:#b6bee3;}</style></defs><g id="Layer_2" data-name="Layer 2"><g id="Layer_1-2" data-name="Layer 1"><g id="Layer_2-2" data-name="Layer 2"><g id="Layer_1-2-2" data-name="Layer 1-2"><path class="cls-1" d="M20,4.4c-.09-.11-.22,0-.33-.09a.35.35,0,0,1-.28-.41h0a.32.32,0,0,1,.32-.32h1.36c.27,0,.36.21.35.46v1.1c0,.24-.06.46-.34.47s-.42-.16-.42-.44a1.89,1.89,0,0,0-.05-.23L18.83,6.77c-.21.2-.4.42-.61.6s-.39.24-.58,0-.11-.39.07-.57c.71-.71,1.41-1.43,2.11-2.14C19.92,4.61,20,4.54,20,4.4Z"/><path class="cls-1" d="M23.64,12.93H20.46c-.3,0-.68,0-.68-.39s.39-.41.7-.41H23.6c0-.19-.16-.25-.19-.39a.4.4,0,0,1,.14-.45.3.3,0,0,1,.41,0c.33.31.66.62,1,1a.38.38,0,0,1,0,.55l0,0c-.25.25-.49.5-.75.74s-.34.36-.6.15-.16-.41,0-.62A1.8,1.8,0,0,0,23.64,12.93Z"/><path class="cls-1" d="M4.9,20.67a3,3,0,0,1,.5.1.33.33,0,0,1,.22.4.34.34,0,0,1-.35.3H4a.4.4,0,0,1-.38-.42V20c0-.35,0-.5.33-.53s.42.2.44.49a.36.36,0,0,0,.08.19l1.85-1.89.54-.52c.19-.19.41-.28.62-.07s.07.43-.1.61L6,19.58Z"/><path class="cls-1" d="M20.67,20c.11-.07,0-.21.08-.31a.38.38,0,0,1,.42-.29.33.33,0,0,1,.31.34c0,.45,0,.91,0,1.36,0,.26-.21.35-.46.35H20c-.36,0-.49-.05-.5-.36s.18-.41.46-.41a1.52,1.52,0,0,0,.28-.09l-1.89-1.8c-.21-.2-.4-.41-.6-.61s-.24-.37-.06-.57a.39.39,0,0,1,.57,0c.49.47,1,1,1.47,1.44S20.34,19.74,20.67,20Z"/><path class="cls-1" d="M5,4.4,6.77,6.22c.17.17.34.32.5.5s.43.4.16.68-.52,0-.72-.16L5.5,6l-1-1c-.16.1-.1.23-.13.34a.35.35,0,0,1-.4.29.32.32,0,0,1-.32-.32h0V4a.35.35,0,0,1,.29-.4h1.2c.25,0,.5,0,.51.35s-.19.39-.45.41A1,1,0,0,0,5,4.4Z"/><path class="cls-1" d="M12.14,23.64V20.26c0-.26.07-.49.37-.5s.42.21.42.5v3.32c.18.06.21-.13.34-.17a.42.42,0,0,1,.49.13.33.33,0,0,1,0,.45c-.3.31-.61.62-.93.92a.39.39,0,0,1-.54.05l0-.05c-.25-.25-.5-.49-.74-.75s-.38-.34-.17-.6.44-.17.66,0Z"/><path class="cls-1" d="M12.14,1.42a4.92,4.92,0,0,1-.45.24.33.33,0,0,1-.39-.14.28.28,0,0,1,0-.41c.31-.33.62-.66,1-1a.37.37,0,0,1,.53,0l.05.05.78.78c.16.16.31.33.12.56s-.41.18-.62,0L13,1.36v3.1c0,.32.12.78-.38.78s-.4-.47-.41-.81C12.13,3.47,12.14,2.47,12.14,1.42Z"/><path class="cls-1" d="M1.42,12.13H4.76c.42,0,.64.25.53.54s-.32.26-.55.26H1.48c-.06.19.12.23.16.35a.41.41,0,0,1-.12.5.31.31,0,0,1-.44,0l0-.06c-.3-.28-.6-.58-.89-.88a.4.4,0,0,1-.06-.56l.06-.06.75-.75c.17-.16.35-.37.6-.15s.15.45,0,.66A1.14,1.14,0,0,1,1.42,12.13Z"/><path class="cls-1" d="M16.86,8.34a1.18,1.18,0,0,0-1.11-1.25H11.17a1.15,1.15,0,0,0-1.25,1,.74.74,0,0,0,0,.21c0,.34-.06.47-.43.46a1.15,1.15,0,0,0-1.27,1,.74.74,0,0,0,0,.21V13.3h0v3.27a1.21,1.21,0,0,0,1,1.36.86.86,0,0,0,.32,0h4.28a1.13,1.13,0,0,0,1.28-1,.88.88,0,0,0,0-.28c0-.4.13-.46.49-.46a1.13,1.13,0,0,0,1.22-1V8.34Zm-2.44,8.25c0,.28,0,.58-.39.58H9.36c-.39,0-.38-.32-.38-.59V13.37H9V10.1c0-.32.1-.51.43-.55s.52,0,.52.43v5a1.13,1.13,0,0,0,.93,1.3,1,1,0,0,0,.35,0H14C14.25,16.26,14.45,16.26,14.42,16.59Zm1.07-1.07H11.32c-.59,0-.66-.08-.66-.67V8.51c0-.45.15-.63.61-.63h4.28c.41,0,.56.16.56.57v3.27h0v3.17C16.11,15.34,15.94,15.52,15.49,15.52Z"/><path class="cls-1" d="M13.36,11.31h-1.1a.38.38,0,0,1-.43-.32v-.07c0-.27.17-.39.42-.39h2.26a.37.37,0,0,1,.42.33.13.13,0,0,1,0,.06c0,.26-.17.39-.43.39Z"/><path class="cls-1" d="M13.38,12.09h1.11c.24,0,.45.08.45.36s-.2.39-.48.38H12.3c-.28,0-.46-.1-.47-.4s.2-.35.44-.35Z"/><path class="cls-1" d="M13.37,14.37H12.26c-.24,0-.43-.1-.43-.38s.19-.37.44-.37h2.21c.27,0,.47.1.45.41s-.21.35-.46.35h-1.1Z"/><path class="cls-1" d="M13.37,9.75h-1.1c-.24,0-.44-.08-.44-.36S12,9,12.29,9h2.2c.26,0,.44.1.45.36s-.17.39-.42.39Z"/></g></g></g></g></svg>